<?xml version="1.0" encoding="utf-8"?>
<!-- Generator: Adobe Illustrator 23.1.1, SVG Export Plug-In . SVG Version: 6.00 Build 0)  -->
<svg version="1.1" xmlns="http://www.w3.org/2000/svg" xmlns:xlink="http://www.w3.org/1999/xlink" x="0px" y="0px"
	 viewBox="0 0 254.99 422.01" style="enable-background:new 0 0 254.99 422.01;" xml:space="preserve">
<style type="text/css">
	.st0{fill:#DAF0F2;}
	.st1{fill:#FFFFFF;}
	.st2{fill:#4F5457;}
	.st3{fill:#6D6E71;}
	.st4{fill:#BCBEC0;}
	.st5{fill:#D1D3D4;}
	.st6{fill:#A7A9AC;}
	.st7{fill:#898989;}
	.st8{fill:#9A9A9A;}
	.st9{fill:#1A1618;}
	.st10{fill:#BAB8B3;}
	.st11{fill:#2C282F;}
	.st12{fill:#B5B5B5;}
	.st13{fill:#D7D7D7;}
	.st14{fill:#DBDBDA;}
	.st15{fill:#A4A8B1;}
	.st16{fill:#E3E8F1;}
	.st17{fill:#BE2428;}
	.st18{fill:#A0A3A8;}
	.st19{fill:#B4BBC5;}
	.st20{fill:#010101;}
	.st21{fill:#CDD0D0;}
	.st22{fill:#9D2123;}
	.st23{fill:#DD6A26;}
	.st24{fill:#868B93;}
	.st25{fill:#DD2728;}
	.st26{fill:#302C2D;}
	.st27{fill:none;stroke:#BAB8B3;stroke-width:0.36;stroke-miterlimit:10;}
	.st28{fill:#FAAF4A;}
	.st29{clip-path:url(#SVGID_2_);fill:#FFFFFF;}
	.st30{clip-path:url(#SVGID_2_);fill:#D02853;}
	.st31{clip-path:url(#SVGID_2_);fill:#F79751;}
	.st32{fill:#808285;}
	.st33{opacity:0.1;fill:#010101;}
	.st34{fill:#414042;}
	.st35{fill:#E6E7E8;}
	.st36{fill:#DD7A81;}
	.st37{fill:#EDE582;}
	.st38{fill:#82CA9E;}
	.st39{fill:#3A9B91;}
	.st40{opacity:0.3;fill:url(#SVGID_3_);}
	.st41{fill:#F1F2F2;}
	.st42{fill:#FBB034;}
	.st43{fill:#58595B;}
	.st44{fill:#FBB04A;}
	.st45{fill:#D12853;}
	.st46{fill:#F79750;}
	.st47{fill:none;}
	.st48{opacity:0.3;fill:url(#SVGID_4_);}
	.st49{fill:#EAC9BC;}
	.st50{fill:#E0BEB6;}
	.st51{fill:#C66E29;}
	.st52{fill:#E4E8F2;}
	.st53{fill:#D8D7D7;}
	.st54{fill:#28445C;}
	.st55{fill:#FBBD91;}
	.st56{fill:#121F28;}
	.st57{fill:#C92929;}
	.st58{fill:#D78228;}
	.st59{fill:#A91E23;}
	.st60{fill:#A51D42;}
	.st61{opacity:0.43;}
	.st62{fill:#991C1F;}
	.st63{fill:#F8F4E4;}
	.st64{fill:#000004;}
	.st65{fill:#0F1A24;}
	.st66{fill:#B64F4A;}
	.st67{fill:#4F8460;}
	.st68{fill:#162C1C;}
	.st69{fill:#AF2224;}
	.st70{fill:#D8B4A9;}
	.st71{fill:#F2D65E;}
	.st72{fill:#C1C1C0;}
	.st73{clip-path:url(#SVGID_6_);fill:#FFFFFF;}
	.st74{clip-path:url(#SVGID_6_);fill:#D02854;}
	.st75{clip-path:url(#SVGID_6_);fill:#F79751;}
	.st76{fill:#2D2A2C;}
	.st77{fill:none;stroke:#BAB8B3;stroke-width:4.5747;stroke-miterlimit:10;}
	.st78{fill:#ABAAAA;}
	.st79{fill:#B5B6B6;}
	.st80{fill:#CC7329;}
	.st81{opacity:0.53;}
	.st82{opacity:0.3;fill:url(#SVGID_7_);}
	.st83{fill:#F9A11C;}
	.st84{opacity:0.3;fill:url(#SVGID_8_);}
	.st85{fill:#D6B9B2;}
	.st86{fill:#E1BDB0;}
	.st87{fill:#DDB8B1;}
	.st88{fill:#C7C7C8;}
	.st89{fill:#C19B91;}
	.st90{fill:#D6B1A5;}
	.st91{fill:#69AD85;}
	.st92{fill:#1B3444;}
	.st93{fill:#ECEDED;}
	.st94{fill:#6B401E;}
	.st95{fill:#E2A125;}
	.st96{fill:#AA837B;}
	.st97{fill:#C1988E;}
	.st98{fill:#0F1A27;}
	.st99{fill:#BC2226;}
	.st100{fill:#E1BEB5;}
	.st101{fill:#0F191E;}
</style>
<g id="clouds">
	<path class="st0" d="M41.46,215.35c-0.04,0.31-0.07,0.62-0.07,0.93c0,4.75,5.2,8.6,11.6,8.6c4,0,7.51-1.5,9.59-3.78
		c0.42,5.57,9.85,10.03,21.46,10.03c10.17,0,18.66-3.22,20.9-7.82c1.21-0.2,2.31-0.75,3.26-1.2c4.5,1.22,9.94,0.78,15.01-1.6
		c0.48-0.23,0.95-0.47,1.41-0.73c2.09,1.08,4.84,1.75,7.87,1.75c6.52,0,11.81-3.06,11.81-6.83c0-0.49-0.1-0.98-0.27-1.44
		c0.7-0.53,1.29-1.15,1.73-1.85c1.64,1,5.19,7.16,7.14,6.25c0.59-0.28,1.22-1.92,1.66-2.33c0.78,0.07,6.49,1.88,7.32,1.88
		c0.38,0-5.61-6.5-5.24-6.52c-2.41-1.82-6.02-2.98-10.06-2.98c-1.4,0-2.74,0.14-4,0.4c0.08-1.54-0.25-3.1-1.04-4.56
		c-2.56-4.7-8.92-6.49-14.21-4c-2.48,1.16-4.27,3.06-5.22,5.23c-0.03-0.12-0.08-0.24-0.12-0.37c0.52-1.37,1.59-2.67,0.24-4.22
		c-0.82-0.93-2.11-1.53-3.41-1.57c-3.07-3.5-7.64-5.55-12.49-5.82c-0.92-2.97-6.92-5.27-14.2-5.27c-7.92,0-14.33,2.71-14.33,6.05
		c0,0.94,0.52,1.82,1.41,2.61c-2.34-1.94-4.84-3.2-7.74-3.66c-11.45-1.82-19.06,4.98-17.98,9.1c-0.27,0.15-0.47,0.33-0.63,0.53
		c-0.51-0.01-1.14,0.31-1.53-0.02c-4.83-4.01-11.48-2.68-14.91,0.42c-2.53,0.65-4.86,6.35-4.32,6.21
		C33.29,212.71,35.83,214.68,41.46,215.35z"/>
	<path class="st1" d="M44.14,212.6c-0.04-0.31,0-0.24,0-0.55c0-4.75,8.34-7.76,14.74-7.76c4,0,6.78,0.71,8.87,2.99
		c0.42-5.57,10.79-7.16,22.4-7.16c10.17,0,18.66,3.22,20.9,7.82c1.21,0.2,2.31,0.75,3.26,1.2c4.5-1.22,9.94-0.78,15.01,1.6
		c0.48,0.23,0.95,0.47,1.41,0.73c2.09-1.08,4.84-1.75,7.87-1.75c6.52,0,11.81,3.06,11.81,6.83c0,0.49-0.1,0.98-0.27,1.44
		c0.7,0.53,1.29,1.15,1.73,1.85c1.64-1,3.86-1.16,5.8-0.25c0.59,0.28,1.11,0.64,1.55,1.05c0.78-0.07,1.58-0.11,2.41-0.11
		c0.38,0,0.75,0.01,1.11,0.02c-2.41,1.82-6.02,2.98-10.06,2.98c-1.4,0-2.74-0.14-4-0.4c0.08,1.54-0.25,3.1-1.04,4.56
		c-2.56,4.7-8.92,6.49-14.21,4c-2.48-1.16-4.27-3.06-5.22-5.23c-0.03,0.12-0.08,0.24-0.12,0.37c0.52,1.37,1.59,2.67,0.24,4.22
		c-0.82,0.93-2.11,1.53-3.41,1.57c-3.07,3.5-7.64,5.55-12.49,5.82c-0.92,2.97-6.92,5.27-14.2,5.27c-7.92,0-14.33-2.71-14.33-6.05
		c0-0.94,0.52-1.82,1.41-2.61c-2.89,0.54-4.91,2.88-7.74,3.66c-1.27,0.35-2.95,0.76-4.28,0.62c-0.17-0.02-3.56-0.99-3.11-1.37
		c-4.37,3.69-11.66-4.22-10.59-8.35c-0.27-0.15-0.47-0.33-0.63-0.53c-0.51,0.01-1.02,0.02-1.53,0.02c-6.53,0-12.39-1-16.44-2.58
		c-2.53-0.65-4.87-1.76-6.47-3.34c0.6,0.09-0.22-0.62,0.32-0.47C36.06,218.78,38.52,213.27,44.14,212.6z"/>
</g>
<g id="Layer_5">
</g>
<g id="bar">
</g>
<g id="Layer_6">
</g>
<g id="velos">
</g>
<g id="bar_coverss">
</g>
<g id="interface">
</g>
<g id="girl">
	<path class="st72" d="M123.03,334.86c-0.45-1.01-0.93-0.75-0.93-0.75l-1.57,0.62l-0.45,0.18l-0.33,0.29
		c-0.66-0.2-1.21,0.71-1.21,0.71l-0.74,0.07c-1.58,0.67-1.74,1.52-1.74,1.52l-0.42,2.83l1.51,2.31c0.77,1.18,0.84,2.17,0.84,2.17
		l-2.29,14.85c1.89-1.56,3.6,0.43,3.6,0.43l1.31-13.89c0,0-0.32,1.92-0.09-0.24c0.22-2.15,0.44-3.39,0.44-3.39l1-2.5l0.89-0.36
		c0.67,1.12,1.15-0.05,1.15-0.05l-0.05-3.29L123.03,334.86z"/>
	<g>
		<path class="st13" d="M117.06,342.94l-1.72-2.63l0.41-2.72c0,0,0.15-0.81,1.67-1.46l0.71-0.06c0,0,0.52-0.87,1.16-0.68l0.32-0.28
			l0.43-0.17l1.51-0.6c0,0,0.46-0.25,0.9,0.72l0.88,1.46l0.05,3.16c0,0-0.46,1.13-1.1,0.05l-0.86,0.34l-1.13,2.83L117.06,342.94z"/>
	</g>
	<g>
		<path class="st26" d="M121.19,337.8l0.8-0.76l0.06-2.6c0,0-0.03-0.38-1.31,0.21l-0.97,0.39L121,335c0,0,0.32,0.38,0.22,1.11
			L121.19,337.8z"/>
	</g>
	<g>
		<path class="st26" d="M115.34,340.31l-0.04-2.55c0,0,0.54-1,1.51-1.33l0.75-0.05l-0.99,0.66c0,0-0.55,0.14-0.5,1.13l0.26,2.06
			C116.33,340.22,115.73,340.9,115.34,340.31z"/>
	</g>
	<path class="st54" d="M106.2,325.9c0,0-2.41,4.19-1.59,6.7c0,0,11,4.29,20.81,4.05c0,0,1.97-3.28-4.74-6.78
		C113.97,326.36,106.2,325.9,106.2,325.9z"/>
	<path class="st55" d="M111.16,319.84l-3.55,5.76c0,0-0.05,2.17,2.83,3.15c2.89,0.98,3.04,0.22,3.04,0.22s-1.67-1.88,1.51-7.26
		L111.16,319.84z"/>
	<path class="st1" d="M104.93,331.21c0,0-0.91-1.39-0.13,1.13c0,0,10.94,4.45,20.75,4.36l0.08-0.87
		C117.47,336.07,104.93,331.21,104.93,331.21z"/>
	<path class="st33" d="M217.96,395.42c0,3.94-41.17,7.14-91.95,7.14c-50.78,0-91.95-3.2-91.95-7.14s41.17-7.14,91.95-7.14
		C176.79,388.28,217.96,391.47,217.96,395.42z"/>
	<g>
		<path class="st15" d="M58.2,364.88L58.1,365l-1.83,2.1c0,0,1.12,4.52,4.07,4.05l0.82-0.75v-3.9v-1.76c0,0-1.3-1.23-2.11-0.71"/>
	</g>
	<g>
		<g>
			<path class="st16" d="M64.55,396.07c-19.4,0-35.19-15.55-35.19-34.67c0-19.12,15.78-34.67,35.19-34.67
				c19.4,0,35.18,15.55,35.18,34.67C99.74,380.52,83.95,396.07,64.55,396.07z M64.55,333.51c-15.84,0-28.73,12.51-28.73,27.89
				c0,15.38,12.89,27.89,28.73,27.89c15.84,0,28.73-12.51,28.73-27.89C93.28,346.02,80.4,333.51,64.55,333.51z"/>
		</g>
	</g>
	<g>
		<path class="st20" d="M64.37,397.76c-19.45,0-35.28-16.16-35.28-36.01c0-19.86,15.83-36.01,35.28-36.01
			c19.45,0,35.28,16.15,35.28,36.01C99.65,381.6,83.82,397.76,64.37,397.76z M64.37,330.41c-16.93,0-30.7,14.06-30.7,31.33
			c0,17.28,13.77,31.33,30.7,31.33c16.93,0,30.7-14.06,30.7-31.33C95.06,344.47,81.29,330.41,64.37,330.41z"/>
	</g>
	<g>
		<polygon class="st15" points="197.27,362.78 192.12,341.59 192.35,341.53 197.5,362.72 		"/>
	</g>
	<g>
		<path class="st15" d="M190.55,361.06l-0.23-0.08c2.84-7.84,7.03-19.72,6.94-20.36l0.24-0.05
			C197.67,341.38,191.28,359.05,190.55,361.06z"/>
	</g>
	<g>
		<path class="st15" d="M194.7,361.79c-0.33-0.78-8.05-19.21-8.37-20.19l0.23-0.08c0.32,0.97,8.28,19.98,8.36,20.17L194.7,361.79z"
			/>
	</g>
	<g>
		<polygon class="st15" points="193.86,370.07 169.77,356.28 169.88,356.07 193.97,369.86 		"/>
	</g>
	<g>
		<polygon class="st15" points="199.36,392.14 197.37,372.34 194.93,391.33 194.69,391.29 197.4,370.22 199.6,392.12 		"/>
	</g>
	<g>
		<polygon class="st15" points="210.84,384.81 199.38,368.47 199.57,368.33 211.04,384.67 		"/>
	</g>
	<g>
		
			<rect x="208.6" y="356.56" transform="matrix(0.1159 -0.9933 0.9933 0.1159 -180.1699 531.9162)" class="st15" width="0.25" height="21.21"/>
	</g>
	<g>
		<path class="st15" d="M196.53,364.93l-0.22-0.1c2.99-6.67,8.68-19.4,8.78-19.88l0.09,0.02l0.14-0.04
			C205.37,345.1,202.41,351.83,196.53,364.93z"/>
	</g>
	<g>
		<polygon class="st15" points="214.19,381.79 199.33,367.03 199.37,366.95 209.5,346.27 209.72,346.38 199.62,366.98 
			214.36,381.62 		"/>
	</g>
	<g>
		<polygon class="st15" points="219.25,366.06 196.02,363.14 214.22,353.6 214.33,353.82 196.83,363 219.28,365.82 		"/>
	</g>
	<g>
		<polygon class="st15" points="177.68,387.96 177.52,387.77 194.76,372.66 194.91,372.85 		"/>
	</g>
	<g>
		<path class="st15" d="M171.03,381.77l-0.09-0.08l-0.11,0.08c-0.09-0.14-0.09-0.14,3.17-2.63c1.69-1.28,4.04-3.06,7-5.29
			c5.04-3.79,10.15-7.61,10.21-7.65l0.14,0.2C184.47,371.54,171.37,381.37,171.03,381.77z"/>
	</g>
	<g>
		<polygon class="st15" points="192.35,365.03 192.13,364.93 202.5,341.1 202.72,341.2 		"/>
	</g>
	<g>
		<polygon class="st15" points="191.33,362.36 191.22,362.14 214.1,349.21 214.22,349.42 		"/>
	</g>
	<g>
		<path class="st15" d="M198.24,371.39l-0.11-0.22c8.73-4.33,21.86-10.93,22.27-11.4c-0.02,0.02-0.04,0.08,0,0.13l0.2-0.15
			l0.02,0.11C220.51,360.31,204.94,368.07,198.24,371.39z"/>
	</g>
	<g>
		<polygon class="st15" points="219.24,372.88 195.6,368.52 195.64,368.28 219.28,372.64 		"/>
	</g>
	<g>
		<polygon class="st15" points="205.97,384.81 195.54,370.07 168.61,360.1 168.69,359.87 195.69,369.86 195.71,369.89 
			206.17,384.67 		"/>
	</g>
	<g>
		<path class="st15" d="M191.37,389.9l-0.2-0.13c0.21-0.53-0.39-11.76-0.85-19.18l0.24-0.02C190.75,373.71,191.7,389.4,191.37,389.9
			z"/>
	</g>
	<g>
		<polygon class="st15" points="186.33,389.86 186.1,389.8 191.27,368.37 191.5,368.43 		"/>
	</g>
	<g>
		<polygon class="st15" points="189.73,360.1 172.39,353.18 172.48,352.95 189.82,359.87 		"/>
	</g>
	<g>
		<path class="st15" d="M187.36,357.86c-1.07,0-13.48-8.79-14.89-9.8l0.14-0.2c5.52,3.92,14,9.75,14.75,9.75c0,0,0,0,0,0V357.86
			C187.36,357.86,187.36,357.86,187.36,357.86z"/>
	</g>
	<g>
		
			<rect x="35.18" y="361.03" transform="matrix(0.9804 -0.1971 0.1971 0.9804 -70.3291 15.6119)" class="st15" width="16.18" height="0.25"/>
	</g>
	<g>
		<path class="st15" d="M34.86,358.27l0-0.25c0.23-0.02,6.52-1.22,9.81-1.84l0.04,0.24C43.1,356.73,35.04,358.27,34.86,358.27z"/>
	</g>
	<g>
		<polygon class="st15" points="57.12,368.12 35.34,367.78 35.34,367.53 57.12,367.87 		"/>
	</g>
	<g>
		<polygon class="st15" points="40.12,377.02 39.97,376.83 56.44,362.66 56.59,362.85 		"/>
	</g>
	<g>
		<polygon class="st15" points="43.09,380.27 42.91,380.11 57.22,363.1 57.41,363.26 		"/>
	</g>
	<g>
		<polygon class="st15" points="47.13,383.48 46.96,383.3 61.68,369.75 61.84,369.93 		"/>
	</g>
	<g>
		<path class="st15" d="M56.43,388.4c-0.11-0.11-0.09-1.41,0.52-13.4c0.14-2.69,0.26-5.01,0.25-5.15l0.24-0.04
			c0.02,0.07-0.02,0.85-0.24,5.2c-0.25,4.81-0.66,12.86-0.56,13.26l-0.09,0.02L56.43,388.4z"/>
	</g>
	<g>
		<path class="st15" d="M51.85,386.03l-0.09-0.06h-0.13c0-0.06,0-0.1,11.47-15.04l0.19,0.15C59.41,376.15,52.01,385.78,51.85,386.03
			z"/>
	</g>
	<g>
		<polygon class="st15" points="61.64,389.55 60.43,368.68 60.68,368.66 61.88,389.54 		"/>
	</g>
	<g>
		<path class="st15" d="M66.38,390.23c-0.22-7.29-0.64-21.17-0.69-21.53l0.11-0.02l0.1-0.1c0.05,0.05,0.09,0.1,0.73,21.63
			L66.38,390.23z"/>
	</g>
	<g>
		<path class="st15" d="M70.87,388.7c-0.64-7.24-1.86-21.03-1.93-21.35l0.23-0.07c0.06,0.19,1.62,17.85,1.94,21.39L70.87,388.7z"/>
	</g>
	<g>
		<polygon class="st15" points="75.73,387.78 62.33,371.09 62.52,370.93 75.91,387.62 		"/>
	</g>
	<g>
		<polygon class="st15" points="79.89,385.75 66.41,369.48 66.59,369.32 80.07,385.59 		"/>
	</g>
	<g>
		<polygon class="st15" points="84.05,383.47 70.24,367.74 70.42,367.57 84.23,383.31 		"/>
	</g>
	<g>
		<polygon class="st15" points="87.25,380.27 68.31,359.95 68.48,359.78 87.43,380.1 		"/>
	</g>
	<g>
		<polygon class="st15" points="90.32,376.73 67.4,369.52 67.47,369.28 90.39,376.5 		"/>
	</g>
	<g>
		<polygon class="st15" points="92.49,372.39 75.78,367.12 75.85,366.89 92.56,372.15 		"/>
	</g>
	<g>
		<polygon class="st15" points="72,364.99 71.92,364.76 92.48,357.1 92.57,357.34 		"/>
	</g>
	<g>
		<path class="st15" d="M75.78,360.6c-0.03,0-0.05-0.02-0.06-0.04l0.01-0.16l0.08,0.08l-0.03-0.11c0.33-0.13,10.58-5.97,15.96-9.04
			l0.12,0.22c0,0-3.99,2.28-7.98,4.55c-2,1.14-3.99,2.27-5.49,3.12c-1.65,0.93-2.25,1.27-2.49,1.36l0,0l0,0
			C75.84,360.59,75.81,360.6,75.78,360.6z"/>
	</g>
	<g>
		<polygon class="st15" points="75.86,353.02 75.77,352.79 88.93,347.87 89.01,348.1 		"/>
	</g>
	<g>
		<path class="st72" d="M110.56,388.12c0.02-0.04,0.1-0.2,0.28-0.58l0.01-0.01C110.84,387.52,110.6,388.04,110.56,388.12z"/>
		<path class="st72" d="M110.56,388.12C110.55,388.13,110.55,388.13,110.56,388.12L110.56,388.12z"/>
		<path class="st72" d="M120.15,387.27c0,0-0.64-1.31-1.74-0.18c-0.06,0.06-0.1,0.1-0.15,0.15c-0.24-0.31-0.85-1.01-1.65-1.33
			l1.85-14.28c1.7-0.71,3-2.31,3.21-4.31c0.31-2.89-1.74-5.48-4.57-5.78c-2.83-0.3-5.38,1.8-5.68,4.69c-0.28,2.64,1.41,5,3.86,5.63
			l-2.01,15.45c-0.05-0.04-0.1-0.09-0.14-0.17l-0.16-0.82c0,0-0.77-1.67-1.85,0.61c-0.12,0.24-0.21,0.43-0.28,0.59l-1.9,4.24
			l-0.48,3.25l2.41,0.26c0,0,1.09,2.2,3.2,1.25l2.8-0.61c0,0,0.85,0.01,1.13-1.45l2.11-3.86l0.03-0.25L120.15,387.27z"/>
	</g>
	<g>
		<path class="st11" d="M120.14,365.06l-0.33-0.36c1.96-1.86,8.25-8.28,8.32-8.35c1.62-1.8,12.55-9.01,13.01-9.31l14.63-8.35
			l10.38-4.47l0.56,0.29l-10.74,4.63l-14.59,8.32c-0.1,0.07-11.32,7.47-12.91,9.23C128.4,356.76,122.11,363.19,120.14,365.06z"/>
	</g>
	<g>
		<path class="st11" d="M120.16,366.62l-0.38-0.3c0.21-0.28,5.22-6.79,6.65-8.25l0.34,0.35
			C125.37,359.85,120.21,366.56,120.16,366.62z"/>
	</g>
	<g>
		<path class="st11" d="M111.76,366.02l-0.47-0.13c1.1-4.15-0.54-8.6-0.56-8.65l0.45-0.18
			C111.26,357.25,112.91,361.72,111.76,366.02z"/>
	</g>
	<g>
		<path class="st11" d="M66.05,374.08c-0.1,0-0.21,0-0.31-0.01c-1.59-0.09-3-0.88-4.16-2.35l0.38-0.31
			c1.08,1.36,2.36,2.09,3.81,2.17c3.1,0.17,6.05-2.65,6.25-2.86c2.53-3.39,7.02-2.76,7.21-2.73l0.07,0.02
			c1.29,0.63,13.46-0.2,18.04-0.58c2.9-0.3,14.23,1.63,14.71,1.72l-0.08,0.48c-0.12-0.02-11.75-2.01-14.59-1.71
			c-1.69,0.14-16.43,1.32-18.25,0.55c-0.4-0.05-4.49-0.47-6.74,2.56l-0.02,0.03C72.24,371.19,69.34,374.08,66.05,374.08z"/>
	</g>
	<g>
		<path class="st11" d="M68.6,358.76l5.37,4.31c0,0,5.15-1.78,6.98,1.72l-1.51,1.15l-12.93,0.53l-2.13-3.29l-0.74-5.74L68.6,358.76z
			"/>
	</g>
	<g>
		<path class="st11" d="M56.36,369.84l0.95,1.17c0,0,0.99,1.42,2.05,1.03c1.07-0.38,0.13-0.12,0.13-0.12l0.7-0.91c0,0-2.88,0-3.83-4
			l-0.87,0.82"/>
	</g>
	<g>
		<path class="st17" d="M95.43,340.81l-0.84-1.78c0.2-0.1,20.19-9.86,44.63-14.51l0.24-0.04c24.96-4.7,27.89-5.11,31.44-4.35
			l-0.4,1.93c-3.18-0.68-6.33-0.23-30.7,4.35l-0.23,0.04C115.38,331.06,95.62,340.71,95.43,340.81z"/>
	</g>
	<g>
		<path class="st18" d="M200.09,365.49c0,4.13-3.28,7.48-7.33,7.48c-4.05,0-7.33-3.35-7.33-7.48s3.28-7.48,7.33-7.48
			C196.81,358.01,200.09,361.36,200.09,365.49z"/>
	</g>
	<g>
		<path class="st19" d="M200.09,368.4c0,2.52-2,4.57-4.48,4.57c-2.47,0-4.48-2.05-4.48-4.57c0-2.52,2-4.57,4.48-4.57
			C198.09,363.83,200.09,365.88,200.09,368.4z"/>
	</g>
	<g>
		<path class="st11" d="M185.79,353.06l7.84,5.66c0,0-6-0.78-7.84,5.09c-1.84,5.87,0,0.21,0,0.21l-4.17-11.33
			c0,0-2.01-2.8-2.77-3.37l-0.16-0.61l0.6-0.29L185.79,353.06z"/>
	</g>
	<g>
		<g>
			<path class="st16" d="M193.63,394.22c-15.95,0-28.93-12.42-28.93-27.69c0-15.27,12.98-27.69,28.93-27.69
				c15.95,0,28.93,12.42,28.93,27.69C222.56,381.81,209.58,394.22,193.63,394.22z M193.63,344.27c-13.03,0-23.63,9.99-23.63,22.27
				s10.6,22.27,23.63,22.27c13.03,0,23.62-9.99,23.62-22.27S206.65,344.27,193.63,344.27z"/>
		</g>
	</g>
	<g>
		
			<rect x="66.48" y="364.34" transform="matrix(0.9989 -0.0475 0.0475 0.9989 -17.2778 4.64)" class="st16" width="45.07" height="3.2"/>
	</g>
	<g>
		<polygon class="st16" points="168.4,319.59 165.87,311.34 169.07,311.34 171.32,318.37 		"/>
	</g>
	<g>
		<path class="st20" d="M193.63,396.78c-16.08,0-29.17-13.36-29.17-29.77c0-16.42,13.08-29.77,29.17-29.77
			c16.08,0,29.17,13.36,29.17,29.77C222.79,383.43,209.71,396.78,193.63,396.78z M193.63,341.92c-13.56,0-24.58,11.26-24.58,25.09
			s11.03,25.09,24.58,25.09c13.56,0,24.58-11.26,24.58-25.09S207.18,341.92,193.63,341.92z"/>
	</g>
	<g>
		<path class="st21" d="M161.22,366.7c0.47-15.45,10.7-28.43,25.11-31.91c0,0,8.28-3.36,15.88-1.07l-2.48,2.29
			c0,0-18.5,1.16-26.59,10.23c0,0-7.43,7.99-8.09,14.39l28.85,8.46v3.55l-30.16,5.94c0,0-3.14,0.66-3.47,0
			c-0.33-0.66-0.33-0.66-0.33-0.66l1.16-3.14C161.09,374.79,161.16,368.68,161.22,366.7z"/>
	</g>
	<g>
		<path class="st1" d="M161.81,366.02c0.46-15.38,10.42-28.29,24.45-31.75c0,0,8.06-3.35,15.46-1.07l-2.41,2.28
			c0,0-18.02,1.15-25.9,10.18c0,0-7.24,7.95-7.88,14.32l28.09,8.42v3.53l-29.38,5.91c0,0-3.05,0.66-3.38,0
			c-0.32-0.66-0.32-0.66-0.32-0.66l1.12-3.12C161.67,374.07,161.75,367.99,161.81,366.02z"/>
	</g>
	<g>
		<polyline class="st22" points="89.05,314.31 94.6,314.31 96.74,312.67 101.51,323.7 88.5,323.7 89.05,315.1 		"/>
	</g>
	<g>
		<path class="st11" d="M177.4,384.17l1.53-2.09c0,0,0.88-0.33,0.68,0.66l-1.73,2.01C177.88,384.74,177.03,384.67,177.4,384.17z"/>
	</g>
	<g>
		<path class="st11" d="M180.07,350.63c0.06,0.07,1.07,6.52,2.04,8.17c0,0-0.08,0.73,0.36,1.18l0.24,0.56c0,0-0.08,0.98,0.44,1.2
			c0,0,0.52,0.36,0.92,0l1.05-0.72l-0.4-0.86l-1.05,0.86c0,0-0.4-0.29-0.4-0.74c0,0-0.4-0.16-0.16-0.45l1.21-0.66l-1.41,0.29
			l-0.32-0.86l-0.53-0.53c0,0-1.25-5.33-1.45-6.16l-0.12-1.27H180.07z"/>
	</g>
	<g>
		<path class="st24" d="M197.55,370.26c0,1.03-0.81,1.86-1.82,1.86c-1,0-1.82-0.83-1.82-1.86c0-1.02,0.82-1.85,1.82-1.85
			C196.74,368.4,197.55,369.23,197.55,370.26z"/>
	</g>
	<g>
		<path class="st25" d="M195.92,368.34c-0.59,0-1.06-0.49-1.06-1.09c0-0.6,0.48-1.09,1.06-1.09c0.59,0,1.07,0.49,1.07,1.09
			C196.98,367.86,196.5,368.34,195.92,368.34z M195.92,366.91c-0.19,0-0.34,0.16-0.34,0.35c0,0.19,0.15,0.35,0.34,0.35
			c0.19,0,0.34-0.16,0.34-0.35C196.26,367.06,196.1,366.91,195.92,366.91z"/>
	</g>
	<g>
		<path class="st11" d="M178.78,338.59l-0.29-0.66c2.73-3.48-2.29-13.38-2.34-13.48l-0.01-0.03l-0.09-0.25
			c-0.01,0.11-0.02,0.21-0.03,0.31c-0.3,2.43-1.27,3.76-1.31,3.81l-0.38-0.3c0.02-0.03,1.35-1.87,1.28-5.15l-3.56-10.45l1.09,1.73
			c2.23,3.53,2.9,6.49,2.96,8.68l0.49,1.45C176.86,324.8,181.88,334.64,178.78,338.59z M174.04,316.73l1.32,3.87
			C175.12,319.43,174.71,318.14,174.04,316.73z"/>
	</g>
	<g>
		<path class="st11" d="M174.08,326.78l-0.48-0.08c0.71-4.63-1.82-12.6-1.84-12.68l0.52-0.14
			C172.38,314.2,174.8,322.04,174.08,326.78z"/>
	</g>
	<g>
		<path class="st16" d="M61.76,362.02c0,0.18-1.21,2.46-1.21,2.46s-0.48,0.82,0,1.46l0.16,5.44h2.68l1.69-0.37
			c0,0,1.65-3.26,4.05-3.02l-0.07-2.34c0,0-3.14-0.19-3.47-2.24c-0.01-0.08-0.02-0.16-0.02-0.24c-0.12-2.26-1.93-1.44-1.93-1.44
			L61.76,362.02z"/>
	</g>
	<g>
		<path class="st13" d="M119.41,390.28l0.02-3.09c0,0-0.64-1.31-1.74-0.18c-1.09,1.12-0.03,0.31-0.03,0.31s-1.74-2.59-3.7-1.25
			c0,0-1.1,1.9-1.56,1.01l-0.16-0.82c0,0-0.77-1.67-1.85,0.61c-1.08,2.29-0.28,0.58-0.28,0.58l-1.9,4.26l-0.48,3.25l2.41,0.26
			c0,0,1.09,2.2,3.2,1.25l2.8-0.61c0,0,0.85,0.01,1.13-1.45l2.11-3.86"/>
	</g>
	<g>
		<g>
			<polygon class="st13" points="115.54,388.61 112.43,388.2 114.84,369.6 117.95,370.01 			"/>
		</g>
	</g>
	<g>
		<path class="st26" d="M112.26,386.25c0,0-1.17-0.43-1.74,0.37l-2.26,4.78c0,0-0.67,0.61,0.62,0.99l2.28,0.24
			c0,0,1.67-1.56,2.58,0.27l1.72-0.19c0,0,0.96,0.5,1.69-1.08c0.03-0.07,0.06-0.14,0.09-0.22c0.74-1.84,1.87-3.89,1.87-3.89
			s-0.1-1.37-0.9-0.16l-2.65,4.36c0,0-0.91,1.08-1.75,0.43c0,0-1.31-1.38-2.94-0.31l-1.27-0.07c0,0-0.61,0,0.56-1.8L112.26,386.25z"
			/>
	</g>
	<g>
		<path class="st26" d="M113.62,395.11c-0.04,0.4-0.64,0.67-1.34,0.6c-0.7-0.07-1.22-0.46-1.18-0.87c0.04-0.41,0.64-0.68,1.34-0.6
			C113.13,394.31,113.66,394.7,113.62,395.11z"/>
	</g>
	<g>
		<polyline class="st10" points="165.33,312.46 170.4,311.67 171.25,314.24 166.75,315.66 165.33,312.85 		"/>
	</g>
	<g>
		<path class="st26" d="M120.53,340.45c0.14,0.36-0.17,0.82-0.69,1.03c-0.53,0.21-1.07,0.09-1.21-0.27
			c-0.14-0.36,0.17-0.82,0.69-1.03C119.84,339.97,120.39,340.09,120.53,340.45z"/>
	</g>
	<g>
		<path class="st13" d="M115.4,358.9l2.2-14.28c0,0-0.07-0.96-0.82-2.1l3.67-0.06c0,0-0.21,1.19-0.42,3.27
			c-0.21,2.08,0.09,0.23,0.09,0.23l-1.26,13.36C118.87,359.32,117.22,357.4,115.4,358.9z"/>
	</g>
	<g>
		<path class="st25" d="M119.97,360.44c0,1.36-1.08,2.46-2.41,2.46c-1.33,0-2.41-1.1-2.41-2.46c0-1.36,1.08-2.46,2.41-2.46
			C118.89,357.98,119.97,359.08,119.97,360.44z"/>
	</g>
	<g>
		<path class="st25" d="M158.64,335.73c0,0,7.41-1.63,9.65-1.01c0.14,0.04,0.26,0.09,0.36,0.15c1.63,0.99,1.69,0.86,1.69,0.86
			l1.97-1.15c0,0-0.28-1.8,0.62-2.17l-0.84-3.26l-13.93,5.29l0.48,1.05"/>
	</g>
	<path class="st25" d="M97.66,327l-5.92-13.67l4.41-1.99l6.05,13.97c-0.93,0.51-2.33,1.2-3.67,1.53
		C98.23,326.92,97.94,326.97,97.66,327z"/>
	<path class="st25" d="M146.57,339.8c0.31,0.72,0.7,1.49,1.14,2.19c-0.52,0.29-1.05,0.59-1.57,0.9c-0.43-0.69-0.79-1.49-1.08-2.22
		C145.55,340.37,146.06,340.09,146.57,339.8z"/>
	<path class="st25" d="M195.21,367.01l-0.43-0.35l0.05-0.05c-7.49-7.18-17.95-32.37-18.36-33.37l1.12-0.45l-5.63-14.78l-4.5,1.79
		l0.59,1.56c-23.72,2.33-44.92,8.54-61.18,14.75l-1.48-3.42c-1,0.55-2.47,1.25-3.92,1.61c-0.21,0.05-0.41,0.09-0.6,0.13l1.49,3.45
		c-3.18,1.28-6.14,2.55-8.86,3.77c-6.99,3.13-12.97,6.18-17.72,8.79c0.38,0.77,0.8,1.55,1.19,2.14c4.7-2.57,10.62-5.6,17.55-8.7
		c2.7-1.21,5.64-2.47,8.81-3.74l9.8,22.63l3.39,1.48l2.25-1.6c6.7-6.84,16.62-13.49,26.1-19.02c-0.28-0.46-0.56-0.99-0.82-1.58
		c-0.1-0.22-0.19-0.43-0.27-0.64c-11.49,6.67-20.33,13.09-26.34,19.11l-9.59-22.15c16.24-6.19,37.43-12.37,61.11-14.62l1.52,4
		c-2.71,1.21-10.57,4.79-19.72,9.74c-0.06,0.03-0.11,0.06-0.17,0.09c0.33,0.73,0.73,1.52,1.13,2.19c9.1-4.94,16.88-8.5,19.64-9.73
		l1.73,4.54l1.14-0.42c0.43,1.06,10.47,25.4,18.37,33.67v0c0,0,0.01,0.01,0.02,0.03c0.18,0.19,0.37,0.38,0.55,0.55l0.03-0.03
		c0.45,0.38,1.08,0.84,1.6,0.98c0.92,0.25,1.29-0.49,1.29-0.49L195.21,367.01z"/>
	<path class="st25" d="M149.32,338.27c0.32,0.71,0.71,1.49,1.13,2.19c-0.49,0.27-0.97,0.54-1.47,0.81
		c-0.43-0.68-0.82-1.47-1.14-2.19C148.34,338.81,148.83,338.54,149.32,338.27z"/>
	<path class="st25" d="M98.91,329.87l-0.63-1.47c0.2-0.03,0.4-0.08,0.61-0.13c1.44-0.36,2.91-1.06,3.91-1.61l0.69,1.6
		c-0.92,0.5-2.22,1.11-3.46,1.42C99.62,329.79,99.24,329.85,98.91,329.87z"/>
	<path class="st25" d="M100.27,333.02l-0.75-1.73c0.27-0.04,0.55-0.09,0.85-0.17c1.35-0.34,2.71-0.97,3.71-1.5l0.73,1.7
		c-0.93,0.51-2.33,1.2-3.67,1.53C100.83,332.93,100.54,332.98,100.27,333.02z"/>
	<path class="st25" d="M71.76,352.68c0.35,0.73,0.77,1.47,1.24,2.11c-0.54,0.31-1.06,0.61-1.56,0.9c-0.47-0.59-0.88-1.36-1.22-2.13
		C70.71,353.29,71.23,352.99,71.76,352.68z"/>
	<path class="st25" d="M63.2,357.94c0.05-0.03,2.07-1.42,5.77-3.63c0.38,0.84,0.79,1.55,1.22,2.13c-0.86,0.52-1.63,0.99-2.31,1.4
		l46.32,4.11l-2.82,2.34l-44.88-4.11l0.14-1.57c-1.34,0.85-2.06,1.34-2.09,1.36L63.2,357.94z"/>
	<path class="st25" d="M74.51,351.13c0.36,0.73,0.77,1.49,1.21,2.13c-0.49,0.27-0.97,0.54-1.44,0.81c-0.45-0.59-0.88-1.36-1.24-2.11
		C73.51,351.68,74,351.41,74.51,351.13z"/>
	<path class="st1" d="M98.27,328.4l-0.61-1.4c0.27-0.03,0.56-0.08,0.88-0.16c1.34-0.33,2.74-1.02,3.67-1.53l0.59,1.36
		c-1.01,0.55-2.47,1.25-3.91,1.61C98.67,328.33,98.47,328.37,98.27,328.4z"/>
	<path class="st1" d="M99.52,331.29l-0.62-1.42c0.34-0.02,0.71-0.08,1.12-0.18c1.24-0.31,2.54-0.92,3.46-1.42l0.59,1.36
		c-0.99,0.53-2.36,1.16-3.71,1.5C100.07,331.2,99.79,331.25,99.52,331.29z"/>
	<path class="st1" d="M100.88,334.42l-0.61-1.4c0.27-0.03,0.56-0.08,0.87-0.16c1.34-0.33,2.74-1.02,3.67-1.53l0.59,1.36
		c-1,0.55-2.47,1.25-3.92,1.61C101.27,334.34,101.07,334.38,100.88,334.42z"/>
	<path class="st1" d="M143.79,341.39c0.42-0.24,0.84-0.49,1.27-0.73c0.29,0.74,0.66,1.54,1.08,2.22c-0.42,0.24-0.84,0.48-1.26,0.73
		c-0.28-0.46-0.56-0.99-0.82-1.58C143.96,341.81,143.87,341.6,143.79,341.39z"/>
	<path class="st1" d="M147.85,339.08c0.32,0.72,0.71,1.51,1.14,2.19c-0.42,0.24-0.85,0.48-1.28,0.72c-0.44-0.7-0.83-1.47-1.14-2.19
		C146.99,339.56,147.42,339.32,147.85,339.08z"/>
	<path class="st1" d="M150.6,337.57c0.33,0.73,0.73,1.52,1.13,2.19c-0.42,0.23-0.85,0.46-1.28,0.7c-0.42-0.7-0.81-1.48-1.13-2.19
		C149.75,338.04,150.17,337.8,150.6,337.57z"/>
	<path class="st1" d="M70.23,353.57c0.34,0.76,0.75,1.53,1.22,2.13c-0.44,0.26-0.86,0.51-1.26,0.75c-0.43-0.57-0.83-1.28-1.22-2.13
		C69.37,354.08,69.79,353.83,70.23,353.57z"/>
	<path class="st1" d="M73.04,351.95c0.37,0.75,0.8,1.52,1.24,2.11c-0.44,0.25-0.87,0.49-1.28,0.73c-0.47-0.64-0.89-1.38-1.24-2.11
		C72.17,352.44,72.6,352.2,73.04,351.95z"/>
	<path class="st1" d="M75.79,350.42c0.38,0.77,0.8,1.55,1.19,2.14c-0.43,0.24-0.86,0.47-1.27,0.7c-0.44-0.64-0.85-1.4-1.21-2.13
		C74.92,350.9,75.35,350.66,75.79,350.42z"/>
	<g>
		<g>
			<path class="st13" d="M120.96,367.25c-0.31,2.89-2.85,4.99-5.68,4.69c-2.83-0.3-4.88-2.89-4.57-5.78
				c0.31-2.89,2.85-4.99,5.68-4.69C119.22,361.77,121.27,364.36,120.96,367.25z"/>
		</g>
	</g>
	<g>
		<path class="st13" d="M102.72,360.78c-1.63-21.88-18.61-39.08-39.3-39.08c-16.16,0-30.05,10.49-36.14,25.51l-3.21,4.39l2.9,1.34
			l3.38,3.12l19.62,4.72l5.47,3.45l38.29-21.27c0,0,7.4,10.92,7.24,18.34l1.77,1.09V360.78z"/>
	</g>
	<g>
		<path class="st1" d="M102.96,359.49c-1.63-20.7-18.61-36.97-39.3-36.97c-16.16,0-30.05,9.93-36.14,24.13l-3.21,4.16l2.89,1.27
			l3.38,2.96l19.63,4.46l5.47,3.26l38.29-20.12c0,0,7.4,10.33,7.24,17.35l1.77,1.03V359.49z"/>
	</g>
	<g>
		<rect x="58.61" y="333.12" class="st28" width="13.68" height="13.96"/>
		<polygon class="st1" points="60.32,339.19 60.68,339.15 61.01,340.6 61.35,339.08 61.78,339.03 61.14,341.38 60.87,341.36 		"/>
		<g>
			<defs>
				<rect id="SVGID_5_" x="44.93" y="333.12" width="27.36" height="13.96"/>
			</defs>
			<clipPath id="SVGID_2_">
				<use xlink:href="#SVGID_5_"  style="overflow:visible;"/>
			</clipPath>
			<path class="st29" d="M62.33,340.5c0.07,0.29,0.26,0.49,0.5,0.51c0.18,0.01,0.35-0.08,0.45-0.21l0.58,0.02
				c-0.14,0.49-0.59,0.85-1.01,0.81c-0.55-0.05-0.96-0.66-0.96-1.37c0-0.72,0.4-1.36,0.96-1.42c0.58-0.07,1.09,0.57,1.09,1.36
				c0,0.11-0.02,0.21-0.03,0.32L62.33,340.5z M63.41,339.93c-0.08-0.32-0.31-0.5-0.56-0.48c-0.23,0.02-0.46,0.22-0.53,0.52
				L63.41,339.93z"/>
			<polygon class="st29" points="64.31,337.79 64.91,337.68 64.91,341.71 64.31,341.66 			"/>
			<path class="st29" d="M68.92,340.17c0,1.13-0.95,1.93-2,1.83c-0.91-0.08-1.61-0.89-1.61-1.8c0-0.93,0.69-1.74,1.65-1.85
				C68.01,338.24,68.92,339.06,68.92,340.17 M66.26,339.51c-0.17,0.19-0.25,0.43-0.25,0.69c0,0.52,0.38,0.98,0.91,1
				c0.59,0.03,1.05-0.41,1.05-1.02c0-0.6-0.47-1.06-1.05-1.01C66.68,339.18,66.42,339.32,66.26,339.51"/>
			<path class="st29" d="M67.22,344.21c-0.79-0.19-1.47-0.7-1.94-1.4c-0.1-0.15-0.09-0.34,0.02-0.44c0.11-0.1,0.29-0.06,0.39,0.08
				c0.39,0.55,0.93,0.93,1.53,1.05c1.54,0.31,3.05-1.12,3.05-3.23c0-2.12-1.5-3.51-3.05-3.18c-0.48,0.1-0.92,0.37-1.28,0.76
				c-0.12,0.14-0.3,0.15-0.4,0.03c-0.1-0.12-0.08-0.32,0.04-0.46c0.45-0.51,1.01-0.88,1.65-1.05c2.02-0.53,4.11,1.15,4.11,3.89
				C71.33,342.99,69.24,344.7,67.22,344.21"/>
			<path class="st29" d="M60.8,342.43c-0.72-0.16-1.24-1.19-1.24-2.33c0-1.13,0.51-2.17,1.24-2.34c0.39-0.09,0.79,0.08,1.11,0.51
				c0.07,0.09,0.05,0.24-0.02,0.34c-0.08,0.09-0.19,0.09-0.26,0c-0.24-0.34-0.53-0.48-0.83-0.42c-0.57,0.11-0.99,0.97-0.99,1.92
				c0,0.95,0.42,1.8,0.99,1.9c0.3,0.06,0.59-0.1,0.83-0.44c0.06-0.09,0.18-0.09,0.26,0c0.08,0.09,0.09,0.25,0.02,0.34
				C61.6,342.34,61.2,342.52,60.8,342.43"/>
			<rect x="44.93" y="333.12" style="clip-path:url(#SVGID_2_);fill:#D02854;" width="13.68" height="13.96"/>
			<path class="st29" d="M53.56,343.65l-0.55-1.58h-2.54l-0.55,1.58h-1.49l2.66-7.1h1.35l2.64,7.1H53.56z M52.09,339.43
				c-0.14-0.42-0.28-0.84-0.34-1.11c-0.07,0.26-0.21,0.69-0.35,1.11l-0.45,1.29h1.59L52.09,339.43z"/>
			<path class="st31" d="M48.14,340.3c-0.03,0.1-0.14,0.15-0.24,0.12l-1.94-0.67c-0.1-0.03-0.15-0.14-0.12-0.24l0.16-0.49
				c0.03-0.1,0.14-0.16,0.23-0.12l1.94,0.66c0.1,0.04,0.15,0.14,0.12,0.24L48.14,340.3z"/>
			<path class="st31" d="M48.04,341.85c0.03,0.1-0.02,0.21-0.12,0.24l-1.38,0.5c-0.1,0.03-0.2-0.02-0.23-0.12l-0.16-0.49
				c-0.03-0.1,0.02-0.21,0.12-0.24l1.38-0.5c0.1-0.03,0.2,0.02,0.24,0.12L48.04,341.85z"/>
			<path class="st31" d="M47.66,337.32c-0.08,0.06-0.1,0.18-0.03,0.27l0.88,1.2c0.06,0.08,0.18,0.1,0.26,0.03l0.4-0.32
				c0.08-0.07,0.1-0.18,0.03-0.26l-0.88-1.2c-0.06-0.08-0.18-0.1-0.26-0.04L47.66,337.32z"/>
			<path class="st31" d="M55.36,340.3c0.03,0.1,0.14,0.15,0.24,0.12l1.94-0.67c0.1-0.03,0.15-0.14,0.12-0.24l-0.16-0.49
				c-0.03-0.1-0.14-0.16-0.24-0.12l-1.94,0.66c-0.1,0.04-0.15,0.14-0.12,0.24L55.36,340.3z"/>
			<path class="st31" d="M55.47,341.85c-0.03,0.1,0.02,0.21,0.12,0.24l1.38,0.5c0.1,0.03,0.2-0.02,0.24-0.12l0.16-0.49
				c0.03-0.1-0.02-0.21-0.12-0.24l-1.38-0.5c-0.1-0.03-0.2,0.02-0.24,0.12L55.47,341.85z"/>
			<path class="st31" d="M55.85,337.32c0.08,0.06,0.1,0.18,0.03,0.27l-0.88,1.2c-0.06,0.08-0.18,0.1-0.26,0.03l-0.4-0.32
				c-0.08-0.07-0.1-0.18-0.03-0.26l0.88-1.2c0.06-0.08,0.18-0.1,0.26-0.04L55.85,337.32z"/>
		</g>
	</g>
	<path class="st23" d="M57,382.43c0.11,0.57-0.21,1.25-0.21,1.25l-0.28-0.24l0.11-0.96c0.01-0.59-0.47-1.03-0.47-1.03
		c-0.95-1.15-3.12-2.26-3.12-2.26c-0.72-0.39-1.05-0.1-1.05-0.1l-0.74,0.52l-0.47-0.21c0,0,0.4-0.55,0.96-0.74
		c0,0-1.22-0.72-2.31,0.75l-0.02-0.01c-1.07,1.58,0.04,2.56,0.04,2.56c-0.01-0.59,0.36-1.16,0.36-1.16l0.36,0.37l-0.23,0.87
		c0,0-0.15,0.41,0.46,0.95c0,0,1.79,1.66,3.2,2.15c0,0,0.58,0.3,1.13,0.08l0.87-0.44l0.32,0.18c0,0-0.53,0.54-1.1,0.63
		c0,0,1.82,0.5,2.65-0.56l0.01,0.01C58.19,383.89,57,382.43,57,382.43z"/>
	<path class="st23" d="M209.37,354.8c0.04,0.57-0.35,1.22-0.35,1.22l-0.25-0.27l0.22-0.94c0.08-0.59-0.35-1.08-0.35-1.08
		c-0.81-1.25-2.84-2.6-2.84-2.6c-0.67-0.47-1.03-0.22-1.03-0.22l-0.79,0.43l-0.44-0.26c0,0,0.46-0.5,1.04-0.63
		c0,0-1.12-0.85-2.39,0.48l-0.01-0.01c-1.24,1.45-0.25,2.55-0.25,2.55c0.06-0.59,0.49-1.11,0.49-1.11l0.32,0.41l-0.33,0.84
		c0,0-0.2,0.39,0.35,0.99c0,0,1.59,1.85,2.93,2.5c0,0,0.54,0.36,1.11,0.21l0.91-0.33l0.3,0.21c0,0-0.59,0.47-1.16,0.5
		c0,0,1.75,0.71,2.69-0.25l0.01,0.01C210.38,356.4,209.37,354.8,209.37,354.8z"/>
	
		<rect x="167.66" y="291.02" transform="matrix(0.999 -0.0446 0.0446 0.999 -13.16 7.7928)" class="st11" width="0.4" height="14.94"/>
	<g>
		<path class="st14" d="M192.16,276.01l-0.29,13.38l5.15,0.15c0,0-1.05-12.89-0.81-13.33c0.24-0.45-0.16,0-0.16,0L192.16,276.01z"/>
	</g>
	<g>
		<polygon class="st11" points="190.98,291.29 161.8,275.53 162.03,275.09 191.21,290.86 		"/>
	</g>
	<g>
		<g>
			<path class="st10" d="M174.29,313.54c-0.13,0-0.26-0.03-0.38-0.08l-0.11-0.05l-4.69-3.84l-0.08-0.23
				c-4.9-13.97-12.34-35.09-12.77-36.01c0.02,0.04,0.04,0.06,0.04,0.08l1.41-0.96c0.31,0.48,7.13,19.83,12.83,36.08l2.95,2.42
				c-0.23-0.94-0.71-2.54-1.74-5.19l1.57-0.64c2.74,7.06,2.1,7.7,1.67,8.12C174.8,313.43,174.54,313.54,174.29,313.54z"/>
		</g>
	</g>
	<g>
		<path class="st76" d="M148.66,270.56c0,1.08-0.8,1.96-1.79,1.96c-0.99,0-1.8-0.88-1.8-1.96c0-1.08,0.8-1.96,1.8-1.96
			C147.86,268.6,148.66,269.48,148.66,270.56z"/>
	</g>
	<g>
		<g>
			<path class="st10" d="M190.11,305.04l0.41,5.9l0,0l1.07-0.08l0.73-5.83c0,0,2.34-2.52-0.55-4
				C191.76,301.04,187.26,301.27,190.11,305.04z"/>
		</g>
	</g>
	<g>
		<g>
			<polygon class="st10" points="187.21,308.72 187.21,308.72 187.44,308.81 188.43,302.55 186.45,303.58 			"/>
		</g>
	</g>
	<g>
		<path class="st11" d="M167.23,289.81l-1.71-14.99l0-0.03c0.29-1.99,0.03-5.27,0-5.58c-0.38-1.27-5.36-0.81-6.42-0.56l-0.08-0.52
			c-2.15,0.24,6.43-1.05,6.98,0.96l0.01,0.04c0.01,0.15,0.31,3.55,0,5.69l1.79,15.97L167.23,289.81z"/>
	</g>
	<g>
		<path class="st11" d="M193.66,293.43l0.02-1.12c0-0.01,0.26-1.17-3.75-2.89l-28.85-15.44l-0.48-0.83l29.54,15.82
			C196.42,291.97,193.73,293.27,193.66,293.43z"/>
	</g>
	<g>
		<path class="st10" d="M159.42,269.69h2.01c0,0,0.36-0.49,1.49-0.41l3.98-0.01c0,0,2.17,0.54,1.57,1.65c0,0-0.88,1.01-3.46,0.49
			l-3.66-0.53l-2.25,0.21L159.42,269.69z"/>
	</g>
	<g>
		<path class="st10" d="M161.35,274.7l6.39-0.41c0,0,2.38-0.33,1.25,1.35c0,0-4.99,0.82-7.08,0.49L161.35,274.7z"/>
	</g>
	<g>
		<path class="st10" d="M196.82,289.79c-0.35,0-0.76-0.04-1.22-0.12l-3.73-0.02l0.08-0.58l3.71,0.11c1.51,0.26,1.98,0.01,2.11-0.11
			c0.09-0.08,0.09-0.15,0.09-0.16l-0.02-0.14l0.11-0.08c1.47-1.22,1.42-8,1.28-10.51c0.02-0.56-0.12-0.98-0.42-1.27
			c-0.6-0.57-1.64-0.48-1.65-0.48l-0.02,0l-0.02,0c-5.34-0.28-5.46-0.32-5.49-0.34l0.08-0.23l0.05-0.24
			c0.2,0.03,3.32,0.21,5.37,0.32c0.17-0.01,1.29-0.08,2,0.61c0.41,0.39,0.6,0.93,0.57,1.62l0,0c0,0,0.13,2.31,0.02,4.77
			c-0.14,3.25-0.61,5.29-1.4,6.05c-0.02,0.11-0.07,0.26-0.21,0.4C197.89,289.67,197.45,289.79,196.82,289.79z"/>
	</g>
	<g>
		<rect x="191.88" y="280.03" class="st10" width="4.34" height="0.49"/>
	</g>
	<g>
		<path class="st10" d="M193.23,284.85c-1.4,0-1.47-0.07-1.53-0.13l0.34-0.35c-0.04-0.04-0.08-0.05-0.08-0.05
			c0.24,0.06,2.47,0.04,4.45-0.02l0.01,0.49C194.93,284.83,193.92,284.85,193.23,284.85z"/>
	</g>
	<g>
		<rect x="196.42" y="283.04" class="st10" width="3.32" height="0.6"/>
	</g>
	<g>
		<polygon class="st10" points="179.24,306.6 175.21,302.55 176.6,302.56 179.92,305.9 		"/>
	</g>
	<g>
		<polygon class="st10" points="186.99,303.24 183.79,299.42 184.52,298.78 187.73,302.6 		"/>
	</g>
	<g>
		<path class="st10" d="M191.48,301.91l-0.28-0.94c0.08-0.03,2.05-0.69,1.87-3.07c-0.01-0.07-0.01-0.14-0.02-0.22
			c-0.38-3.01-0.51-8.08-0.51-8.13l0.97-0.03c0,0.05,0.13,5.07,0.5,8.03c0.01,0.09,0.02,0.18,0.03,0.27
			C194.23,300.36,192.45,301.61,191.48,301.91z"/>
	</g>
	<g>
		<path class="st10" d="M170.34,312.85c0.3-0.45,3.32-1.09,3.32-1.09l0.63,1.77l-3.95,0.99V312.85z"/>
	</g>
	<g>
		<path class="st10" d="M169.07,311.34c0,0.31-0.71,0.56-1.6,0.56c-0.88,0-1.6-0.25-1.6-0.56c0-0.31,0.71-0.56,1.6-0.56
			C168.35,310.78,169.07,311.03,169.07,311.34z"/>
	</g>
	<g>
		<g>
			<path class="st10" d="M175.12,309.01c-0.95,0-1.72-0.24-2.31-0.72c-0.96-0.77-1.16-1.98-1.13-2.72l-13.04-33.64l1.29-1.64
				l12.33,32.08l10.94-3.52l0.06-0.01c3.21-0.52,3.31-2.53,3.31-2.61c0.01-0.57,0.33-13.93,1.29-20.8c0.03-0.24,0.07-0.47,0.1-0.69
				c0.46-2.81,1.1-4.06,2.15-4.2c1.16-0.14,1.81,1.26,1.93,1.54l0.07,0.16v29.46l-13.42,6.5
				C177.31,308.75,176.12,309.01,175.12,309.01z M172.88,303.98l0.52,1.35l-0.03,0.22c0,0-0.09,0.93,0.5,1.4
				c0.4,0.32,1.48,0.7,4.21-0.34l12.35-5.99v-27.99c-0.04-0.07-0.08-0.13-0.12-0.19c-0.16,0.32-0.42,1.03-0.68,2.59
				c-0.03,0.2-0.07,0.42-0.1,0.65c-0.95,6.77-1.28,20.45-1.28,20.59c0,1.19-0.98,3.64-4.67,4.27L172.88,303.98z"/>
		</g>
	</g>
	<g>
		<path class="st9" d="M159.39,268.33l-1.25-0.82l1.59,1.85l0.19,0.93c0,0-0.11,2.34-2.92,3.46c-0.27,0.11-0.53,0.18-0.79,0.24
			c-2.44,0.52-4.63-1.74-4.63-1.74c4.83-2.46,0-4.49,0-4.49l1.4-1.07c3.22-0.82,5.65,1.16,5.65,1.16"/>
	</g>
	<path class="st9" d="M159.97,270.15c0,1.86-1.49,3.37-3.33,3.37c-1.84,0-3.33-1.51-3.33-3.37c0-1.86,1.49-3.37,3.33-3.37
		C158.48,266.78,159.97,268.29,159.97,270.15z"/>
	<path class="st9" d="M158.51,267.45l2.33,0.15c0,0,0.73,0.34,0.24,1.16l-2.52,0.24L158.51,267.45z"/>
	<g>
		<g>
			<path class="st78" d="M192.16,311.76c0,0.6-0.48,1.09-1.07,1.09c-0.59,0-1.07-0.49-1.07-1.09c0-0.6,0.48-1.09,1.07-1.09
				C191.69,310.68,192.16,311.16,192.16,311.76z"/>
		</g>
	</g>
	<g>
		<g>
			<path class="st78" d="M188.43,308.65c0,0.6-0.48,1.09-1.07,1.09c-0.59,0-1.07-0.49-1.07-1.09c0-0.6,0.48-1.09,1.07-1.09
				C187.95,307.56,188.43,308.04,188.43,308.65z"/>
		</g>
	</g>
	<g>
		<g>
			<path class="st78" d="M192.44,303.32c0,0.6-0.48,1.09-1.07,1.09c-0.59,0-1.07-0.49-1.07-1.09c0-0.6,0.48-1.09,1.07-1.09
				C191.96,302.23,192.44,302.72,192.44,303.32z"/>
		</g>
	</g>
	<g>
		<path class="st9" d="M71.07,285.43c0,0,3.22-1.97,7.88,0h4.66l7.72-0.44c0,0,6.92-0.34,6.92,3.5c0,0-1.13,2.03-7.88,1.37
			c0,0-9.17,0.83-9.01,1.65c0.16,0.82-1.61,1.47-1.61,1.47l-6.43,2.3c0,0-5.63,0.49-6.43-1.48v-2.3h-2.74c0,0-0.48-6.08,2.74-5.91
			L71.07,285.43z"/>
	</g>
	<g>
		<g>
			<polygon class="st12" points="92.19,311.96 85.43,295.72 88.32,294.47 95.08,310.71 			"/>
		</g>
	</g>
	<g>
		<g>
			<path class="st12" d="M82.37,302.55l2.08-0.72c0,0,2.91,7.22,5.8,9.85l-1.75,1.18C88.5,312.85,84.14,308.36,82.37,302.55z"/>
		</g>
	</g>
	<g>
		<g>
			<path class="st12" d="M86.31,297.52c0,1.34-1.06,2.42-2.37,2.42c-1.31,0-2.37-1.09-2.37-2.42c0-1.34,1.06-2.42,2.37-2.42
				C85.25,295.1,86.31,296.18,86.31,297.52z"/>
		</g>
	</g>
	<g>
		<path class="st9" d="M148.97,270.63c0,1.27-0.94,2.3-2.1,2.3c-1.16,0-2.11-1.03-2.11-2.3c0-1.27,0.94-2.3,2.11-2.3
			C148.02,268.33,148.97,269.36,148.97,270.63z"/>
	</g>
	<g>
		<g>
			
				<rect x="88.07" y="295.79" transform="matrix(0.9205 -0.3908 0.3908 0.9205 -111.8997 59.2629)" class="st79" width="3.19" height="17.57"/>
		</g>
	</g>
	<g>
		<g>
			<path class="st79" d="M81.65,303.91l2.11-0.72c0,0,2.95,7.18,5.9,9.8l-1.78,1.18C87.88,314.17,83.45,309.7,81.65,303.91z"/>
		</g>
	</g>
	<g>
		<g>
			<path class="st79" d="M85.66,298.9c0,1.33-1.08,2.41-2.41,2.41c-1.33,0-2.41-1.08-2.41-2.41c0-1.33,1.08-2.41,2.41-2.41
				C84.58,296.49,85.66,297.57,85.66,298.9z"/>
		</g>
	</g>
	<g>
		<path class="st53" d="M78.53,299.08c-1.44,0-3.01-0.48-3.93-1.12l0.42-0.6c0.66,0.46,1.79,0.84,2.86,0.95
			c1.19,0.13,2.18-0.08,2.71-0.56c0.09-0.08,0.19-0.17,0.3-0.24c1.43-1.09,3.41-1.36,3.5-1.37l0.03,0c4.77-0.2,6.15-3.83,6.17-3.87
			l0.69,0.25c-0.01,0.04-1.57,4.12-6.81,4.35c-0.18,0.03-1.92,0.3-3.13,1.23c-0.09,0.07-0.17,0.13-0.25,0.2
			C80.46,298.85,79.53,299.08,78.53,299.08z"/>
	</g>
	<g>
		<path class="st9" d="M146.19,268.33l5.28-0.27c0,0,3.78,1.86,0.3,4.19H147C147,272.25,148.77,269.48,146.19,268.33z"/>
	</g>
	<path class="st49" d="M106.93,219.08c0,0-7.01,3.27,3.79,14.91c8.95,9.65,12.87,15.15,18.24,17.58
		c0.21,0.09,16.75,17.96,22.21,17.76c0,0,4.44-2.25-0.29-2.62c-4.73-0.37-20.73-23.76-20.73-23.76S110.14,216.23,106.93,219.08z"/>
	<path class="st54" d="M99.1,383.98c0,0-2.01,4.4-0.95,6.82c0,0,11.36,3.23,21.1,2.07c0,0,1.65-3.44-5.36-6.3
		C106.88,383.71,99.1,383.98,99.1,383.98z"/>
	<path class="st55" d="M99.81,376.85l-0.6,7.59c0,0,1.06,2.19,4.45,1.7c3.39-0.5,3.15-1.34,3.15-1.34s-2.63-1.03-2.21-8.04
		L99.81,376.85z"/>
	<path d="M83.89,265.3c0,0,35.85,18.74,42.88,22.44c9.99,5.25-5.28,29.23-10.63,35.28c0,0-4.66-0.12-6.75-2.68
		c0,0,6.74-11.87,8.73-21.56c0,0-23.54-2.03-33.4-8.2C74.85,284.41,79.56,265.57,83.89,265.3z"/>
	<path class="st56" d="M82.69,273.06c0,0-16.3-3.47-15.32,1.97c0,0-3.33,7.61,4.86,16.07L85.17,334c0,0,8.9,31.61,14.29,47.21
		c0,0,3.43,1.6,6.29-0.5c0,0-5.63-37.2-7.23-60.57C98.52,320.15,96.25,263.97,82.69,273.06z"/>
	<path class="st44" d="M101.1,253.05c0,0,2.8-3.2,5.51-4.66c0,0,4.67-0.87,6.07-3.01c0,0,2.37-6.21,2.47-9.81
		c0.1-3.59-9.9-2.14-9.9-2.14l-6.31,8.74L101.1,253.05z"/>
	<path class="st44" d="M113.89,237.71l-3.8-3.06l-0.3-7.15l-2.81-15.13c-14.29,1.93-30.12,13.72-35.83,30.48
		c-0.97,2.84-3.87,8.55-6.2,12.33c-3.74,6.07-4.26,11.82-1.29,18.74c0,0-1.49,3.71,4.44,1.31c0,0,26.47-2,28.61-4.19
		c0,0,1.09-0.47,1.37-1.09c4.63-9.94,6.02-23.3,6.02-23.3l7.07-5.16L113.89,237.71"/>
	<path class="st50" d="M176.78,215.57c0.37-1.09,1.1-1.96,1.62-1.96c0.38,0,4.01,0.86,5.78,1.62c0.58,0.25,0.66,0.64,0.52,0.93
		c-0.24,0.51-0.73,0.85-1.44,1.42c-2.27,1.82-5.84-0.04-6.21-0.04C176.52,217.53,176.4,216.66,176.78,215.57z"/>
	<path class="st1" d="M98.31,389.26c0,0-1.06-1.28-0.01,1.14c0,0,11.36,3.23,21.1,2.07l-0.01-0.87
		C111.31,392.73,98.31,389.26,98.31,389.26z"/>
	<path class="st49" d="M181.46,214.63c0.04,0.56,2.73,0.99,3.13,0.96c0.18-0.01,1.23-0.31,2.48-0.52c1.12-0.19,2.38-0.36,2.95-0.72
		c0.2-0.13,0.23-0.2,0.23-0.38c0-0.09-0.05-0.24-0.3-0.29c-1.26-0.28-10.98-0.14-11.32-0.11
		C178.23,213.59,181.42,214.07,181.46,214.63z"/>
	<path class="st49" d="M182.69,218.38c-0.53,0.03-1.05-0.18-1.15-0.46c-0.07-0.2-0.6-2.22-0.55-3.36c0.02-0.47,0.17-0.62,0.45-0.61
		c0.13,0,0.29,0.06,0.5,0.41c0.64,1.07,1.47,3.24,1.54,3.46C183.58,218.1,183.23,218.35,182.69,218.38z"/>
	<path class="st49" d="M179.85,218.87c-0.49-0.1-0.87-0.38-0.85-0.63c0.01-0.18,0.54-1.99,0.95-2.9c0.13-0.3,0.32-0.36,0.45-0.32
		c0.23,0.08,0.35,0.22,0.42,0.63c0.18,1.05-0.04,2.77-0.05,2.95C180.75,218.84,180.34,218.97,179.85,218.87z"/>
	<path class="st49" d="M177.55,218.45c-0.4-0.13-0.67-0.4-0.61-0.6c0.05-0.15,0.57-1.71,1.25-2.31c0.2-0.18,0.39-0.21,0.59-0.1
		c0.13,0.07,0.23,0.21,0.21,0.44c-0.1,0.82-0.55,2.31-0.6,2.46C178.34,218.53,177.96,218.59,177.55,218.45z"/>
	<path class="st57" d="M189.3,214.33c0,0,0.09-0.14,0-0.65c0,0,0.22,0,0.46,0.03c0.24,0.03,0.32,0.09,0.37,0.19
		c0.04,0.09,0.03,0.33-0.23,0.4C189.73,214.34,189.59,214.33,189.3,214.33z"/>
	<path class="st49" d="M117.54,225.6c0,0-2.95-7.15,12.89-8.4c13.12-1.04,19.24-2.35,25.33-1.75c0.23,0.02,23.68-4.3,27.57-0.46
		c0,0,2.6,0.56-0.06,0.43c-4.74-0.23-32.47,7.18-32.47,7.18S117.97,229.86,117.54,225.6z"/>
	<g>
		<g>
			<path class="st49" d="M154.16,267.28c-0.56,0.01-1.01,0.35-1,0.76c0,0.18,0.25,1.25,0.41,2.51c0.14,1.13,0.25,2.39,0.59,2.98
				c0.12,0.2,0.19,0.24,0.36,0.25c0.09,0.01,0.24-0.04,0.3-0.29c0.34-1.24,0.37-5.14,0.36-5.48
				C155.18,267.59,154.72,267.26,154.16,267.28z"/>
			<path class="st49" d="M152.27,266.75c-0.56,0.01-1.01,0.35-1,0.76c0.01,0.29,0.23,3.16,0.71,4.76c0.2,0.66,0.41,0.85,0.69,0.81
				c0.14-0.02,0.28-0.11,0.36-0.62c0.25-1.56,0.28-4.68,0.27-4.99C153.29,267.06,152.83,266.74,152.27,266.75z"/>
			<path class="st49" d="M149.63,266.78c-0.48,0.13-0.8,0.51-0.71,0.87c0.07,0.26,1.14,2.81,1.84,4.09
				c0.23,0.42,0.44,0.52,0.56,0.46c0.22-0.1,0.31-0.3,0.26-0.87c-0.12-1.46-0.84-3.88-0.91-4.13
				C150.58,266.84,150.11,266.66,149.63,266.78z"/>
			<path class="st49" d="M147.53,267.24c-0.38,0.18-0.59,0.54-0.46,0.82c0.1,0.21,1.09,2.41,1.98,3.27c0.27,0.26,0.47,0.3,0.66,0.16
				c0.11-0.09,0.18-0.29,0.09-0.61c-0.34-1.15-1.24-3.26-1.34-3.46C148.33,267.15,147.92,267.06,147.53,267.24z"/>
		</g>
		<path class="st57" d="M148.86,270.84c0,0,0.27-0.07,0.71-0.32c0,0,0.07,0.21,0.13,0.45c0.05,0.23,0.02,0.33-0.06,0.41
			c-0.07,0.07-0.24,0.06-0.44-0.12C149.08,271.15,148.99,271,148.86,270.84z"/>
		<path class="st57" d="M150.71,271.29c0,0,0.28,0.01,0.77-0.13c0,0,0.02,0.22,0,0.46c-0.01,0.24-0.07,0.32-0.16,0.38
			c-0.08,0.05-0.25-0.01-0.4-0.24C150.84,271.64,150.79,271.48,150.71,271.29z"/>
		<path class="st57" d="M152.15,272.13c0,0,0.28,0.04,0.78-0.04c0,0-0.01,0.23-0.05,0.46c-0.03,0.24-0.1,0.31-0.2,0.36
			c-0.09,0.04-0.25-0.04-0.37-0.28C152.24,272.49,152.21,272.32,152.15,272.13z"/>
		<path class="st57" d="M154.21,272.8c0,0,0.14,0.1,0.64,0.03c0,0-0.01,0.22-0.05,0.46c-0.04,0.24-0.1,0.31-0.21,0.36
			c-0.09,0.04-0.33,0.01-0.38-0.25C154.18,273.23,154.19,273.09,154.21,272.8z"/>
	</g>
	<path class="st80" d="M109.77,217.82c0,0,5.19,9.95,13.68,10.63c7,0.56,38.76-6.61,43.76-8.84c1.04-0.47,1.6-1.45,1.37-2.41
		c-0.38-1.56-1.16-3.81-2.61-4.89c-2.34-1.73-3.19-1.28-9.49-0.08c-6.3,1.2-12.64,2.92-16.36,2.08c-3.72-0.84-9.44-1.36-9.44-1.36
		S120.76,212.58,109.77,217.82z"/>
	<path class="st58" d="M104.66,212.57c0,0-5.44,10.34,0.19,16.46c4.46,4.84,6.04,8.34,10.47,16.91
		c3.83,7.41,19.37,18.54,24.73,22.21c1.12,0.76,2.46,0.72,3.29-0.11c1.34-1.35,3.14-3.54,3.33-5.67c0.3-3.44-0.69-4.02-5.81-9.66
		c-5.12-5.64-11.35-7.04-12.8-11.32c-1.46-4.29-3.93-14.33-3.93-14.33S122.29,209.08,104.66,212.57z"/>
	<g>
		<path class="st45" d="M99.7,273.86c-7.24,1.14-37.15,5.83-35.35,5.54l-0.41,0.07l-1.02-6.92c3.05-0.41,7.88-1.07,7.84-1.06
			c6.77-0.92,20.23-2.74,27.67-3.74L99.7,273.86z"/>
		<g class="st81">
			<g>
				<polygon class="st59" points="64.35,279.41 63.94,279.47 62.92,272.55 63.41,272.48 				"/>
			</g>
			<g>
				<polygon class="st59" points="66.2,279.12 65.37,279.25 64.42,272.34 65.25,272.23 				"/>
			</g>
			<g>
				<polygon class="st59" points="68.05,278.82 67.22,278.96 66.25,272.1 67.09,271.98 				"/>
			</g>
			<g>
				<polygon class="st59" points="69.9,278.53 69.07,278.67 68.09,271.85 68.93,271.73 				"/>
			</g>
			<g>
				<polygon class="st59" points="71.75,278.24 70.92,278.38 69.93,271.6 70.77,271.48 				"/>
			</g>
			<g>
				<polygon class="st59" points="73.61,277.95 72.78,278.09 71.77,271.35 72.61,271.24 				"/>
			</g>
			<g>
				<polygon class="st59" points="75.46,277.66 74.63,277.8 73.61,271.1 74.45,270.99 				"/>
			</g>
			<g>
				<polygon class="st59" points="77.31,277.37 76.48,277.51 75.46,270.85 76.29,270.74 				"/>
			</g>
			<g>
				<polygon class="st59" points="79.16,277.08 78.33,277.22 77.3,270.6 78.13,270.49 				"/>
			</g>
			<g>
				<polygon class="st59" points="81.02,276.79 80.19,276.92 79.14,270.35 79.97,270.24 				"/>
			</g>
			<g>
				<polygon class="st59" points="82.87,276.5 82.04,276.63 80.98,270.1 81.81,269.99 				"/>
			</g>
			<g>
				<polygon class="st59" points="84.73,276.21 83.9,276.34 82.83,269.85 83.66,269.74 				"/>
			</g>
			<g>
				<polygon class="st59" points="86.58,275.92 85.75,276.05 84.67,269.6 85.5,269.49 				"/>
			</g>
			<g>
				<polygon class="st59" points="88.44,275.63 87.61,275.76 86.51,269.36 87.35,269.24 				"/>
			</g>
			<g>
				<polygon class="st59" points="90.3,275.34 89.47,275.47 88.36,269.1 89.19,268.99 				"/>
			</g>
			<g>
				<polygon class="st59" points="92.16,275.05 91.33,275.18 91.32,275.18 90.21,268.85 91.04,268.74 				"/>
			</g>
			<g>
				<polygon class="st59" points="94.01,274.76 93.18,274.88 92.05,268.61 92.89,268.49 				"/>
			</g>
			<g>
				<polygon class="st59" points="95.87,274.46 95.05,274.59 93.9,268.35 94.73,268.24 				"/>
			</g>
			<g>
				<polygon class="st59" points="97.73,274.17 96.91,274.3 95.75,268.11 96.58,267.99 				"/>
			</g>
			<g>
				<polygon class="st59" points="99.6,273.88 98.77,274.01 97.6,267.85 98.43,267.74 				"/>
			</g>
		</g>
	</g>
	<g>
		<path class="st45" d="M172.94,212.3c0.02,0.04,2.62,5.71,2.62,5.71l-7.7,2.08c-2.22-1.38-3.26-5.29-3.49-7.51
			c-0.02-0.17-0.03-0.27-0.03-0.27C165.22,212.32,161.16,212.33,172.94,212.3z"/>
		<g class="st61">
			<path class="st62" d="M172.94,212.3l0.39,0.85l-8.8,0.42c-0.08-0.42-0.13-0.76-0.15-0.98l5.79-0.28L172.94,212.3z"/>
		</g>
		<g class="st61">
			<path class="st62" d="M173.48,213.48l0.44,0.95l-8.93,1.08c-0.1-0.34-0.18-0.66-0.26-0.97L173.48,213.48z"/>
		</g>
		<g class="st61">
			<path class="st62" d="M174.66,216.04l0.43,0.94l-8.56,1.85c-0.21-0.29-0.4-0.59-0.58-0.91L174.66,216.04z"/>
		</g>
		<g class="st61">
			<path class="st62" d="M174.05,214.71l0.43,0.94l-8.88,1.56c-0.14-0.31-0.26-0.64-0.37-0.95L174.05,214.71z"/>
		</g>
		<g class="st61">
			<path class="st62" d="M175.26,217.34l0.31,0.67l-7.7,2.08c-0.3-0.19-0.58-0.42-0.83-0.68L175.26,217.34z"/>
		</g>
	</g>
	<path class="st49" d="M139.3,196.71c0,0,0.03,1.77,0.22,2.76c1.21,6.17-0.71,4.85-2.57,4.94c-1.61,0.08-1.9-1.59-1.81-2.79
		c0.1-1.2,0.6-1.6,0.6-1.6"/>
	<path class="st49" d="M138.21,185.44c0,0,0.03,0.06,0.07,0.16c0.35,0.85,1.87,3.07,1.67,5.74c-0.02,0.24-0.82,6.76-0.82,6.76
		s-0.92,4.82-1.62,5.54c0,0-2.82,6.53-5.11,8.23c0,0-0.48,1.71-1.99,1.28l-2.62,0.04l-4.39,4.23l-5.91-19.22l4.85-8.4"/>
	<path class="st63" d="M137.31,199.32c0,0,0.56-0.63,0.04-1.11c-0.52-0.47-2.05-0.61-2.97-0.07c-0.83,0.48-1.53,0.83-0.51,1.31
		C134.88,199.93,136.79,199.99,137.31,199.32z"/>
	<path class="st64" d="M125.64,191.67c0,0-0.98,15.53,0.55,25.4c0,0-0.84-17.58,2.24-22.23L125.64,191.67z"/>
	<path class="st56" d="M124.62,190.7c0,0,0.99,18.16,4.12,29.4c0,0-3.39-20.29-0.46-26.11L124.62,190.7z"/>
	<path class="st65" d="M139.87,191.86c0,0-4.15,3.79-8.34,2.83l-0.67-1.86l0.05,1.98c0,0-1.16,0.11-2.1-0.03c0,0-2.9,1.17-2.38-8.06
		c0,0,0.72-3,1.48-4.13c0,0-1.37-7.29,4.49-3.59c0,0,8.83-0.19,8.06,11.68"/>
	<path class="st66" d="M132.27,200.73c0-0.08-0.13-0.15-0.3-0.15c-0.17,0-0.3,0.07-0.3,0.15c0,0.08,0.13,0.24,0.3,0.24
		C132.14,200.97,132.27,200.82,132.27,200.73z"/>
	<path class="st66" d="M132.29,202.44c-0.01,0.05,0.05,0.15,0.13,0.16c0.07,0.01,0.14-0.05,0.15-0.1c0.01-0.05-0.03-0.13-0.1-0.14
		C132.39,202.35,132.3,202.39,132.29,202.44z"/>
	<path class="st66" d="M132.6,203.66c-0.04,0.05,0.04,0.25,0.17,0.35c0.13,0.1,0.28,0.1,0.33,0.05c0.04-0.05,0-0.2-0.14-0.3
		C132.82,203.66,132.64,203.61,132.6,203.66z"/>
	<path class="st66" d="M130.36,203.28c0.05,0.07,0.2,0.04,0.33-0.06c0.13-0.1,0.2-0.24,0.15-0.3c-0.05-0.07-0.25-0.1-0.38,0
		C130.32,203.01,130.31,203.22,130.36,203.28z"/>
	<path class="st20" d="M137.68,197.96L137.68,197.96c0,0-0.03,0.01-0.07,0.01c-0.02,0-0.05,0.01-0.08,0.01
		c-0.03,0-0.06,0.01-0.09,0.01c-0.07,0.01-0.14,0.01-0.2,0c0,0,0,0,0,0c0.2-0.17,0.19-0.31,0.19-0.31
		c-0.18,0.12-0.45,0.15-0.61,0.16c-0.03-0.01-0.07-0.03-0.1-0.04c-0.14-0.05-0.28-0.1-0.44-0.13c-0.16-0.04-0.33-0.06-0.5-0.07
		c-0.18-0.01-0.36,0-0.54,0.02c-0.18,0.02-0.35,0.07-0.52,0.13c-0.17,0.06-0.32,0.14-0.46,0.22c-0.14,0.08-0.26,0.18-0.37,0.27
		c-0.11,0.09-0.2,0.19-0.28,0.28c-0.08,0.09-0.14,0.18-0.19,0.26c-0.05,0.08-0.1,0.15-0.13,0.21c-0.06,0.12-0.09,0.19-0.09,0.19
		c0,0.01,0,0.01,0.01,0.02c0.01,0,0.02,0,0.02,0c0,0,0.05-0.06,0.14-0.16c0.05-0.05,0.1-0.11,0.17-0.17
		c0.07-0.06,0.15-0.13,0.24-0.21c0.09-0.07,0.19-0.14,0.3-0.21c0.11-0.07,0.23-0.13,0.36-0.19c0.13-0.06,0.26-0.1,0.4-0.14
		c0.14-0.03,0.28-0.05,0.43-0.06c0.29-0.02,0.58,0.02,0.84,0.09c0.13,0.03,0.26,0.07,0.38,0.12c0.06,0.02,0.12,0.05,0.17,0.07
		l0.05,0.02c0.02,0.01,0.03,0.01,0.05,0.02c0.04,0.01,0.08,0.03,0.12,0.03c0.08,0.02,0.16,0.02,0.24,0.02
		c0.08-0.01,0.15-0.02,0.22-0.05c0.13-0.05,0.21-0.13,0.26-0.19c0.05-0.07,0.08-0.12,0.09-0.16c0.01-0.04,0.02-0.06,0.02-0.06
		c0,0,0,0,0,0C137.7,197.96,137.69,197.96,137.68,197.96z"/>
	<path class="st56" d="M135.22,196.21c0.31-0.21,2.46,0.16,2.79,0.16c0.19,0,0.38,0.07,0.38,0.27c0,0.2-0.23,0.49-0.38,0.49
		c-0.09,0-1.65-0.52-2.32-0.63c-0.42-0.07-2.06,0.84-2.18,0.78C133.3,197.17,135.18,196.23,135.22,196.21z"/>
	<g>
		<path class="st67" d="M136.51,198.71c-0.08-0.27-0.51-0.36-0.79-0.29c-0.28,0.07-0.42,0.27-0.33,0.63
			c0.07,0.27,0.43,0.47,0.71,0.4C136.38,199.39,136.61,199.07,136.51,198.71z"/>
		<path class="st68" d="M136.21,198.84c-0.03-0.12-0.23-0.16-0.35-0.13c-0.13,0.03-0.19,0.15-0.16,0.28
			c0.03,0.12,0.19,0.2,0.32,0.16C136.13,199.11,136.24,198.96,136.21,198.84z"/>
		<path class="st1" d="M135.98,198.89c0.03,0.07,0.15,0.07,0.22,0.04c0.07-0.03,0.1-0.11,0.06-0.18c-0.03-0.07-0.13-0.09-0.2-0.06
			C135.99,198.73,135.95,198.83,135.98,198.89z"/>
	</g>
	<path class="st57" d="M131.8,208.47c0,0,0.33,1.01,1.92,1.75c0.02,0.01,0.05,0.02,0.07,0.03c0,0,0.99-0.15,0.59-0.67"/>
	<path class="st69" d="M134.44,209.58c-0.8-0.2-1.6-0.51-2.24-0.87c0,0-1.21-0.64-0.35-0.53c0.85,0.12,1.54,0.01,2.02,0.03
		c0.49,0.02,0.77,0.64,1.04,0.72C134.91,208.94,134.98,209.71,134.44,209.58z"/>
	<path class="st70" d="M137.19,204.34c-0.93,0.19-1.46-0.45-1.41-0.97c0.05-0.52,0.35-0.7,0.35-0.7s-0.4,0.62-0.12,0.92
		c0.27,0.3,0.77,0.55,1.27,0.62C137.27,204.21,137.36,204.31,137.19,204.34z"/>
	<g>
		<path class="st47" d="M125.65,206.38c0.02,0.32,0.3,0.54,0.64,0.49c0.33-0.04,0.55-0.33,0.49-0.64c-0.03-0.13-0.13-0.26-0.24-0.33
			c-0.11-0.08-0.25-0.11-0.4-0.09C125.86,205.85,125.63,206.09,125.65,206.38z"/>
		<polygon class="st71" points="125.58,203.14 126.36,202.86 126.32,202.67 125.15,203.12 125.15,203.27 126.51,203.44 
			126.45,203.21 		"/>
		<path class="st71" d="M125.14,204.21c0.01,0.23,0.24,0.45,0.52,0.49l-0.03-0.31c-0.09-0.05-0.15-0.13-0.15-0.23
			c-0.01-0.13,0.09-0.25,0.24-0.3l0.1,0.85c0.06,0,0.12,0,0.18-0.01c0.44-0.06,0.76-0.37,0.69-0.69c-0.08-0.3-0.46-0.47-0.86-0.42
			C125.44,203.64,125.13,203.91,125.14,204.21z M126.35,204.05c0.02,0.13-0.06,0.27-0.23,0.33l-0.1-0.58
			C126.19,203.82,126.33,203.93,126.35,204.05z"/>
		<polygon class="st71" points="127.48,205.04 127.38,204.72 125.22,205 125.23,205.33 		"/>
		<path class="st71" d="M125.2,206.44c0.01,0.57,0.53,1.03,1.16,0.95c0.62-0.08,1.01-0.63,0.88-1.18c-0.13-0.51-0.63-0.83-1.14-0.76
			C125.59,205.5,125.19,205.93,125.2,206.44z M126.54,205.9c0.12,0.07,0.22,0.2,0.24,0.33c0.06,0.31-0.16,0.6-0.49,0.64
			c-0.34,0.04-0.62-0.18-0.64-0.49c-0.02-0.29,0.21-0.53,0.5-0.57C126.29,205.79,126.43,205.82,126.54,205.9z"/>
		<path class="st71" d="M124,206.75c-0.14,1.13,0.96,2.14,2.49,1.94c1.53-0.2,2.32-1.44,1.89-2.5c-0.14-0.33-0.38-0.61-0.7-0.81
			c-0.08-0.06-0.2-0.05-0.25,0.01c-0.06,0.07-0.04,0.16,0.04,0.22c0.25,0.17,0.42,0.39,0.52,0.64c0.29,0.81-0.39,1.72-1.57,1.87
			c-1.18,0.15-2.07-0.56-2.01-1.42c0.03-0.34,0.2-0.65,0.48-0.9c0.07-0.06,0.08-0.17,0.02-0.22c-0.06-0.05-0.18-0.05-0.25,0.02
			C124.29,205.91,124.05,206.31,124,206.75z"/>
		<path class="st71" d="M124.55,203.16c-0.03,0.22,0.1,0.42,0.37,0.56c0.05,0.03,0.14,0.01,0.18-0.04c0.05-0.05,0.04-0.11-0.01-0.14
			c-0.21-0.1-0.31-0.25-0.3-0.42c0.02-0.32,0.46-0.61,0.99-0.67c0.54-0.07,1.04,0.1,1.14,0.4c0.05,0.16-0.01,0.33-0.18,0.48
			c-0.04,0.04-0.03,0.1,0.03,0.14c0.06,0.04,0.14,0.03,0.19-0.01c0.22-0.21,0.28-0.43,0.2-0.64c-0.14-0.38-0.76-0.58-1.39-0.5
			C125.13,202.41,124.58,202.76,124.55,203.16z"/>
	</g>
	<path class="st56" d="M127.85,192.69l12.65-1.96c0.58-20.3-31.79-15.34-31.29,1.2c0.24,7.9-4.01,20.89,4.74,32.86
		c3.49,4.77,7.05,7.43,11.5,10.49c0.55,0.38,0.3-3.23,0.3-4.71c0,0,0,0,0.61,5.44c0.19,1.68,3.81,2.44,5.66,3.82
		C124.01,213.05,124.44,194.58,127.85,192.69z"/>
</g>
</svg>
