<svg xmlns="http://www.w3.org/2000/svg" width="123.5" height="123.5" viewBox="0 0 123.5 123.5"><rect width="123.5" height="123.5" fill="#d11e49"/><g transform="translate(31.638 30.33)"><path d="M82.58,97.64,77.612,83.607H54.69L49.722,97.64H36.3L60.355,34.8h12.2L96.438,97.64Zm-13.248-37.3c-1.22-3.661-2.528-7.408-3.138-9.761-.61,2.353-1.917,6.1-3.138,9.761L59.048,71.754H73.429Z" transform="translate(-36.3 -34.8)" fill="#fff"/></g><path d="M30.24,71.073a1.592,1.592,0,0,1-2.092,1.046L10.63,66.279a1.592,1.592,0,0,1-1.046-2.092l1.482-4.358a1.592,1.592,0,0,1,2.092-1.046l17.518,5.839a1.592,1.592,0,0,1,1.046,2.092Z" transform="translate(-1.217 -7.536)" fill="#f49746"/><path d="M29.672,87.893a1.658,1.658,0,0,1-1.046,2.092L16.162,94.429a1.658,1.658,0,0,1-2.092-1.046l-1.482-4.358a1.658,1.658,0,0,1,1.046-2.092L26.1,82.489a1.658,1.658,0,0,1,2.092,1.046Z" transform="translate(-1.607 -10.585)" fill="#f49746"/><path d="M28.207,42.234a1.673,1.673,0,0,0-.261,2.353L35.789,55.22a1.673,1.673,0,0,0,2.353.261L41.8,52.693a1.673,1.673,0,0,0,.261-2.353L34.133,39.706a1.673,1.673,0,0,0-2.353-.261Z" transform="translate(-3.541 -5.018)" fill="#f49746"/><path d="M107.866,71.073a1.592,1.592,0,0,0,2.092,1.046l17.518-5.839a1.592,1.592,0,0,0,1.046-2.092L127.04,59.83a1.592,1.592,0,0,0-2.092-1.046L107.43,64.623a1.592,1.592,0,0,0-1.046,2.092Z" transform="translate(-13.65 -7.536)" fill="#f49746"/><path d="M109.189,87.893a1.658,1.658,0,0,0,1.046,2.092L122.7,94.429a1.658,1.658,0,0,0,2.092-1.046l1.482-4.358a1.658,1.658,0,0,0-1.046-2.092l-12.463-4.445a1.658,1.658,0,0,0-2.092,1.046Z" transform="translate(-14.014 -10.585)" fill="#f49746"/><path d="M110.99,42.234a1.673,1.673,0,0,1,.261,2.353L103.32,55.22a1.673,1.673,0,0,1-2.353.261l-3.661-2.789a1.673,1.673,0,0,1-.261-2.353l7.931-10.633a1.673,1.673,0,0,1,2.353-.261Z" transform="translate(-12.416 -5.018)" fill="#f49746"/></svg>