<svg xmlns="http://www.w3.org/2000/svg" xmlns:xlink="http://www.w3.org/1999/xlink" width="198.73" height="225.141" viewBox="0 0 198.73 225.141">
  <defs>
    <clipPath id="clip-path">
      <rect id="Rectangle_15" data-name="Rectangle 15" width="27.36" height="13.96" transform="translate(44.93 333.12)"/>
    </clipPath>
    <clipPath id="clip-path-6">
      <rect id="Rectangle_21" data-name="Rectangle 21" width="27.36" height="13.96"/>
    </clipPath>
  </defs>
  <g id="fietsverhuur_in_antwerpen" transform="translate(-24.07 -177.419)">
    <g id="clouds">
      <path id="Path_19" data-name="Path 19" d="M41.46,215.35a7.276,7.276,0,0,0-.07.93c0,4.75,5.2,8.6,11.6,8.6a13.011,13.011,0,0,0,9.59-3.78c.42,5.57,9.85,10.03,21.46,10.03,10.17,0,18.66-3.22,20.9-7.82a12.446,12.446,0,0,0,3.26-1.2,22.2,22.2,0,0,0,15.01-1.6c.48-.23.95-.47,1.41-.73a17.387,17.387,0,0,0,7.87,1.75c6.52,0,11.81-3.06,11.81-6.83a4.177,4.177,0,0,0-.27-1.44,7.044,7.044,0,0,0,1.73-1.85c1.64,1,5.19,7.16,7.14,6.25.59-.28,1.22-1.92,1.66-2.33.78.07,6.49,1.88,7.32,1.88.38,0-5.61-6.5-5.24-6.52a16.945,16.945,0,0,0-10.06-2.98,19.8,19.8,0,0,0-4,.4,8.58,8.58,0,0,0-1.04-4.56c-2.56-4.7-8.92-6.49-14.21-4a10.455,10.455,0,0,0-5.22,5.23c-.03-.12-.08-.24-.12-.37.52-1.37,1.59-2.67.24-4.22a4.844,4.844,0,0,0-3.41-1.57,17.888,17.888,0,0,0-12.49-5.82c-.92-2.97-6.92-5.27-14.2-5.27-7.92,0-14.33,2.71-14.33,6.05a3.577,3.577,0,0,0,1.41,2.61,15.785,15.785,0,0,0-7.74-3.66c-11.45-1.82-19.06,4.98-17.98,9.1a2.087,2.087,0,0,0-.63.53c-.51-.01-1.14.31-1.53-.02-4.83-4.01-11.48-2.68-14.91.42-2.53.65-4.86,6.35-4.32,6.21C33.29,212.71,35.83,214.68,41.46,215.35Z" fill="#daf0f2"/>
      <path id="Path_20" data-name="Path 20" d="M44.14,212.6a2.528,2.528,0,0,1,0-.55c0-4.75,8.34-7.76,14.74-7.76,4,0,6.78.71,8.87,2.99.42-5.57,10.79-7.16,22.4-7.16,10.17,0,18.66,3.22,20.9,7.82a12.446,12.446,0,0,1,3.26,1.2,22.2,22.2,0,0,1,15.01,1.6c.48.23.95.47,1.41.73a17.387,17.387,0,0,1,7.87-1.75c6.52,0,11.81,3.06,11.81,6.83a4.177,4.177,0,0,1-.27,1.44,7.044,7.044,0,0,1,1.73,1.85,6.2,6.2,0,0,1,5.8-.25,6.126,6.126,0,0,1,1.55,1.05c.78-.07,1.58-.11,2.41-.11.38,0,.75.01,1.11.02a16.945,16.945,0,0,1-10.06,2.98,19.8,19.8,0,0,1-4-.4,8.58,8.58,0,0,1-1.04,4.56c-2.56,4.7-8.92,6.49-14.21,4a10.455,10.455,0,0,1-5.22-5.23c-.03.12-.08.24-.12.37.52,1.37,1.59,2.67.24,4.22a4.844,4.844,0,0,1-3.41,1.57,17.888,17.888,0,0,1-12.49,5.82c-.92,2.97-6.92,5.27-14.2,5.27-7.92,0-14.33-2.71-14.33-6.05a3.577,3.577,0,0,1,1.41-2.61c-2.89.54-4.91,2.88-7.74,3.66a12.724,12.724,0,0,1-4.28.62c-.17-.02-3.56-.99-3.11-1.37-4.37,3.69-11.66-4.22-10.59-8.35a2.087,2.087,0,0,1-.63-.53c-.51.01-1.02.02-1.53.02a47.354,47.354,0,0,1-16.44-2.58,14.316,14.316,0,0,1-6.47-3.34c.6.09-.22-.62.32-.47C36.06,218.78,38.52,213.27,44.14,212.6Z" fill="#fff"/>
    </g>
    <g id="girl">
      <path id="Path_21" data-name="Path 21" d="M123.03,334.86c-.45-1.01-.93-.75-.93-.75l-1.57.62-.45.18-.33.29c-.66-.2-1.21.71-1.21.71l-.74.07c-1.58.67-1.74,1.52-1.74,1.52l-.42,2.83,1.51,2.31a5.04,5.04,0,0,1,.84,2.17l-2.29,14.85c1.89-1.56,3.6.43,3.6.43l1.31-13.89s-.32,1.92-.09-.24.44-3.39.44-3.39l1-2.5.89-.36c.67,1.12,1.15-.05,1.15-.05l-.05-3.29Z" fill="#c1c1c0"/>
      <g id="Group_6" data-name="Group 6">
        <path id="Path_22" data-name="Path 22" d="M117.06,342.94l-1.72-2.63.41-2.72s.15-.81,1.67-1.46l.71-.06s.52-.87,1.16-.68l.32-.28.43-.17,1.51-.6s.46-.25.9.72l.88,1.46.05,3.16s-.46,1.13-1.1.05l-.86.34-1.13,2.83Z" fill="#d7d7d7"/>
      </g>
      <g id="Group_7" data-name="Group 7">
        <path id="Path_23" data-name="Path 23" d="M121.19,337.8l.8-.76.06-2.6s-.03-.38-1.31.21l-.97.39L121,335a1.468,1.468,0,0,1,.22,1.11Z" fill="#302c2d"/>
      </g>
      <g id="Group_8" data-name="Group 8">
        <path id="Path_24" data-name="Path 24" d="M115.34,340.31l-.04-2.55a3.1,3.1,0,0,1,1.51-1.33l.75-.05-.99.66s-.55.14-.5,1.13l.26,2.06C116.33,340.22,115.73,340.9,115.34,340.31Z" fill="#302c2d"/>
      </g>
      <path id="Path_25" data-name="Path 25" d="M106.2,325.9s-2.41,4.19-1.59,6.7c0,0,11,4.29,20.81,4.05,0,0,1.97-3.28-4.74-6.78A40.672,40.672,0,0,0,106.2,325.9Z" fill="#28445c"/>
      <path id="Path_26" data-name="Path 26" d="M111.16,319.84l-3.55,5.76s-.05,2.17,2.83,3.15,3.04.22,3.04.22-1.67-1.88,1.51-7.26Z" fill="#fbbd91"/>
      <path id="Path_27" data-name="Path 27" d="M104.93,331.21s-.91-1.39-.13,1.13c0,0,10.94,4.45,20.75,4.36l.08-.87C117.47,336.07,104.93,331.21,104.93,331.21Z" fill="#fff"/>
      <path id="Path_28" data-name="Path 28" d="M217.96,395.42c0,3.94-41.17,7.14-91.95,7.14s-91.95-3.2-91.95-7.14,41.17-7.14,91.95-7.14S217.96,391.47,217.96,395.42Z" fill="#010101" opacity="0.1"/>
      <g id="Group_9" data-name="Group 9">
        <path id="Path_29" data-name="Path 29" d="M58.2,364.88l-.1.12-1.83,2.1s1.12,4.52,4.07,4.05l.82-.75v-5.66s-1.3-1.23-2.11-.71" fill="#a4a8b1"/>
      </g>
      <g id="Group_11" data-name="Group 11">
        <g id="Group_10" data-name="Group 10">
          <path id="Path_30" data-name="Path 30" d="M64.55,396.07c-19.4,0-35.19-15.55-35.19-34.67s15.78-34.67,35.19-34.67,35.18,15.55,35.18,34.67S83.95,396.07,64.55,396.07Zm0-62.56c-15.84,0-28.73,12.51-28.73,27.89s12.89,27.89,28.73,27.89,28.73-12.51,28.73-27.89S80.4,333.51,64.55,333.51Z" fill="#e3e8f1"/>
        </g>
      </g>
      <g id="Group_12" data-name="Group 12">
        <path id="Path_31" data-name="Path 31" d="M64.37,397.76c-19.45,0-35.28-16.16-35.28-36.01s15.83-36.01,35.28-36.01,35.28,16.15,35.28,36.01S83.82,397.76,64.37,397.76Zm0-67.35c-16.93,0-30.7,14.06-30.7,31.33s13.77,31.33,30.7,31.33,30.7-14.06,30.7-31.33S81.29,330.41,64.37,330.41Z" fill="#010101"/>
      </g>
      <g id="Group_13" data-name="Group 13">
        <path id="Path_32" data-name="Path 32" d="M197.27,362.78l-5.15-21.19.23-.06,5.15,21.19Z" fill="#a4a8b1"/>
      </g>
      <g id="Group_14" data-name="Group 14">
        <path id="Path_33" data-name="Path 33" d="M190.55,361.06l-.23-.08c2.84-7.84,7.03-19.72,6.94-20.36l.24-.05C197.67,341.38,191.28,359.05,190.55,361.06Z" fill="#a4a8b1"/>
      </g>
      <g id="Group_15" data-name="Group 15">
        <path id="Path_34" data-name="Path 34" d="M194.7,361.79c-.33-.78-8.05-19.21-8.37-20.19l.23-.08c.32.97,8.28,19.98,8.36,20.17Z" fill="#a4a8b1"/>
      </g>
      <g id="Group_16" data-name="Group 16">
        <path id="Path_35" data-name="Path 35" d="M193.86,370.07l-24.09-13.79.11-.21,24.09,13.79Z" fill="#a4a8b1"/>
      </g>
      <g id="Group_17" data-name="Group 17">
        <path id="Path_36" data-name="Path 36" d="M199.36,392.14l-1.99-19.8-2.44,18.99-.24-.04,2.71-21.07,2.2,21.9Z" fill="#a4a8b1"/>
      </g>
      <g id="Group_18" data-name="Group 18">
        <path id="Path_37" data-name="Path 37" d="M210.84,384.81l-11.46-16.34.19-.14,11.47,16.34Z" fill="#a4a8b1"/>
      </g>
      <g id="Group_19" data-name="Group 19">
        <rect id="Rectangle_11" data-name="Rectangle 11" width="0.25" height="21.21" transform="translate(198.178 366.039) rotate(-83.345)" fill="#a4a8b1"/>
      </g>
      <g id="Group_20" data-name="Group 20">
        <path id="Path_38" data-name="Path 38" d="M196.53,364.93l-.22-.1c2.99-6.67,8.68-19.4,8.78-19.88l.09.02.14-.04C205.37,345.1,202.41,351.83,196.53,364.93Z" fill="#a4a8b1"/>
      </g>
      <g id="Group_21" data-name="Group 21">
        <path id="Path_39" data-name="Path 39" d="M214.19,381.79l-14.86-14.76.04-.08,10.13-20.68.22.11-10.1,20.6,14.74,14.64Z" fill="#a4a8b1"/>
      </g>
      <g id="Group_22" data-name="Group 22">
        <path id="Path_40" data-name="Path 40" d="M219.25,366.06l-23.23-2.92,18.2-9.54.11.22L196.83,363l22.45,2.82Z" fill="#a4a8b1"/>
      </g>
      <g id="Group_23" data-name="Group 23">
        <path id="Path_41" data-name="Path 41" d="M177.68,387.96l-.16-.19,17.24-15.11.15.19Z" fill="#a4a8b1"/>
      </g>
      <g id="Group_24" data-name="Group 24">
        <path id="Path_42" data-name="Path 42" d="M171.03,381.77l-.09-.08-.11.08c-.09-.14-.09-.14,3.17-2.63,1.69-1.28,4.04-3.06,7-5.29,5.04-3.79,10.15-7.61,10.21-7.65l.14.2C184.47,371.54,171.37,381.37,171.03,381.77Z" fill="#a4a8b1"/>
      </g>
      <g id="Group_25" data-name="Group 25">
        <path id="Path_43" data-name="Path 43" d="M192.35,365.03l-.22-.1L202.5,341.1l.22.1Z" fill="#a4a8b1"/>
      </g>
      <g id="Group_26" data-name="Group 26">
        <path id="Path_44" data-name="Path 44" d="M191.33,362.36l-.11-.22,22.88-12.93.12.21Z" fill="#a4a8b1"/>
      </g>
      <g id="Group_27" data-name="Group 27">
        <path id="Path_45" data-name="Path 45" d="M198.24,371.39l-.11-.22c8.73-4.33,21.86-10.93,22.27-11.4a.1.1,0,0,0,0,.13l.2-.15.02.11C220.51,360.31,204.94,368.07,198.24,371.39Z" fill="#a4a8b1"/>
      </g>
      <g id="Group_28" data-name="Group 28">
        <path id="Path_46" data-name="Path 46" d="M219.24,372.88l-23.64-4.36.04-.24,23.64,4.36Z" fill="#a4a8b1"/>
      </g>
      <g id="Group_29" data-name="Group 29">
        <path id="Path_47" data-name="Path 47" d="M205.97,384.81l-10.43-14.74-26.93-9.97.08-.23,27,9.99.02.03,10.46,14.78Z" fill="#a4a8b1"/>
      </g>
      <g id="Group_30" data-name="Group 30">
        <path id="Path_48" data-name="Path 48" d="M191.37,389.9l-.2-.13c.21-.53-.39-11.76-.85-19.18l.24-.02C190.75,373.71,191.7,389.4,191.37,389.9Z" fill="#a4a8b1"/>
      </g>
      <g id="Group_31" data-name="Group 31">
        <path id="Path_49" data-name="Path 49" d="M186.33,389.86l-.23-.06,5.17-21.43.23.06Z" fill="#a4a8b1"/>
      </g>
      <g id="Group_32" data-name="Group 32">
        <path id="Path_50" data-name="Path 50" d="M189.73,360.1l-17.34-6.92.09-.23,17.34,6.92Z" fill="#a4a8b1"/>
      </g>
      <g id="Group_33" data-name="Group 33">
        <path id="Path_51" data-name="Path 51" d="M187.36,357.86c-1.07,0-13.48-8.79-14.89-9.8l.14-.2c5.52,3.92,14,9.75,14.75,9.75h0v.25Z" fill="#a4a8b1"/>
      </g>
      <g id="Group_34" data-name="Group 34">
        <rect id="Rectangle_12" data-name="Rectangle 12" width="16.18" height="0.25" transform="translate(35.32 362.632) rotate(-11.367)" fill="#a4a8b1"/>
      </g>
      <g id="Group_35" data-name="Group 35">
        <path id="Path_52" data-name="Path 52" d="M34.86,358.27v-.25c.23-.02,6.52-1.22,9.81-1.84l.04.24C43.1,356.73,35.04,358.27,34.86,358.27Z" fill="#a4a8b1"/>
      </g>
      <g id="Group_36" data-name="Group 36">
        <path id="Path_53" data-name="Path 53" d="M57.12,368.12l-21.78-.34v-.25l21.78.34Z" fill="#a4a8b1"/>
      </g>
      <g id="Group_37" data-name="Group 37">
        <path id="Path_54" data-name="Path 54" d="M40.12,377.02l-.15-.19,16.47-14.17.15.19Z" fill="#a4a8b1"/>
      </g>
      <g id="Group_38" data-name="Group 38">
        <path id="Path_55" data-name="Path 55" d="M43.09,380.27l-.18-.16L57.22,363.1l.19.16Z" fill="#a4a8b1"/>
      </g>
      <g id="Group_39" data-name="Group 39">
        <path id="Path_56" data-name="Path 56" d="M47.13,383.48l-.17-.18,14.72-13.55.16.18Z" fill="#a4a8b1"/>
      </g>
      <g id="Group_40" data-name="Group 40">
        <path id="Path_57" data-name="Path 57" d="M56.43,388.4c-.11-.11-.09-1.41.52-13.4.14-2.69.26-5.01.25-5.15l.24-.04c.02.07-.02.85-.24,5.2-.25,4.81-.66,12.86-.56,13.26l-.09.02Z" fill="#a4a8b1"/>
      </g>
      <g id="Group_41" data-name="Group 41">
        <path id="Path_58" data-name="Path 58" d="M51.85,386.03l-.09-.06h-.13c0-.06,0-.1,11.47-15.04l.19.15C59.41,376.15,52.01,385.78,51.85,386.03Z" fill="#a4a8b1"/>
      </g>
      <g id="Group_42" data-name="Group 42">
        <path id="Path_59" data-name="Path 59" d="M61.64,389.55l-1.21-20.87.25-.02,1.2,20.88Z" fill="#a4a8b1"/>
      </g>
      <g id="Group_43" data-name="Group 43">
        <path id="Path_60" data-name="Path 60" d="M66.38,390.23c-.22-7.29-.64-21.17-.69-21.53l.11-.02.1-.1c.05.05.09.1.73,21.63Z" fill="#a4a8b1"/>
      </g>
      <g id="Group_44" data-name="Group 44">
        <path id="Path_61" data-name="Path 61" d="M70.87,388.7c-.64-7.24-1.86-21.03-1.93-21.35l.23-.07c.06.19,1.62,17.85,1.94,21.39Z" fill="#a4a8b1"/>
      </g>
      <g id="Group_45" data-name="Group 45">
        <path id="Path_62" data-name="Path 62" d="M75.73,387.78l-13.4-16.69.19-.16,13.39,16.69Z" fill="#a4a8b1"/>
      </g>
      <g id="Group_46" data-name="Group 46">
        <path id="Path_63" data-name="Path 63" d="M79.89,385.75,66.41,369.48l.18-.16,13.48,16.27Z" fill="#a4a8b1"/>
      </g>
      <g id="Group_47" data-name="Group 47">
        <path id="Path_64" data-name="Path 64" d="M84.05,383.47,70.24,367.74l.18-.17,13.81,15.74Z" fill="#a4a8b1"/>
      </g>
      <g id="Group_48" data-name="Group 48">
        <path id="Path_65" data-name="Path 65" d="M87.25,380.27,68.31,359.95l.17-.17L87.43,380.1Z" fill="#a4a8b1"/>
      </g>
      <g id="Group_49" data-name="Group 49">
        <path id="Path_66" data-name="Path 66" d="M90.32,376.73,67.4,369.52l.07-.24,22.92,7.22Z" fill="#a4a8b1"/>
      </g>
      <g id="Group_50" data-name="Group 50">
        <path id="Path_67" data-name="Path 67" d="M92.49,372.39l-16.71-5.27.07-.23,16.71,5.26Z" fill="#a4a8b1"/>
      </g>
      <g id="Group_51" data-name="Group 51">
        <path id="Path_68" data-name="Path 68" d="M72,364.99l-.08-.23,20.56-7.66.09.24Z" fill="#a4a8b1"/>
      </g>
      <g id="Group_52" data-name="Group 52">
        <path id="Path_69" data-name="Path 69" d="M75.78,360.6a.067.067,0,0,1-.06-.04l.01-.16.08.08-.03-.11c.33-.13,10.58-5.97,15.96-9.04l.12.22s-3.99,2.28-7.98,4.55c-2,1.14-3.99,2.27-5.49,3.12-1.65.93-2.25,1.27-2.49,1.36h0A.96.96,0,0,1,75.78,360.6Z" fill="#a4a8b1"/>
      </g>
      <g id="Group_53" data-name="Group 53">
        <path id="Path_70" data-name="Path 70" d="M75.86,353.02l-.09-.23,13.16-4.92.08.23Z" fill="#a4a8b1"/>
      </g>
      <g id="Group_54" data-name="Group 54">
        <path id="Path_71" data-name="Path 71" d="M110.56,388.12c.02-.04.1-.2.28-.58l.01-.01C110.84,387.52,110.6,388.04,110.56,388.12Z" fill="#c1c1c0"/>
        <path id="Path_72" data-name="Path 72" d="M110.56,388.12Z" fill="#c1c1c0"/>
        <path id="Path_73" data-name="Path 73" d="M120.15,387.27a.982.982,0,0,0-1.74-.18l-.15.15a4.317,4.317,0,0,0-1.65-1.33l1.85-14.28a5.265,5.265,0,0,0,3.21-4.31,5.155,5.155,0,1,0-6.39,4.54l-2.01,15.45a.491.491,0,0,1-.14-.17l-.16-.82s-.77-1.67-1.85.61c-.12.24-.21.43-.28.59l-1.9,4.24-.48,3.25,2.41.26a2.469,2.469,0,0,0,3.2,1.25l2.8-.61s.85.01,1.13-1.45l2.11-3.86.03-.25Z" fill="#c1c1c0"/>
      </g>
      <g id="Group_55" data-name="Group 55">
        <path id="Path_74" data-name="Path 74" d="M120.14,365.06l-.33-.36c1.96-1.86,8.25-8.28,8.32-8.35,1.62-1.8,12.55-9.01,13.01-9.31l14.63-8.35,10.38-4.47.56.29-10.74,4.63-14.59,8.32c-.1.07-11.32,7.47-12.91,9.23C128.4,356.76,122.11,363.19,120.14,365.06Z" fill="#2c282f"/>
      </g>
      <g id="Group_56" data-name="Group 56">
        <path id="Path_75" data-name="Path 75" d="M120.16,366.62l-.38-.3c.21-.28,5.22-6.79,6.65-8.25l.34.35C125.37,359.85,120.21,366.56,120.16,366.62Z" fill="#2c282f"/>
      </g>
      <g id="Group_57" data-name="Group 57">
        <path id="Path_76" data-name="Path 76" d="M111.76,366.02l-.47-.13a16.254,16.254,0,0,0-.56-8.65l.45-.18A16.318,16.318,0,0,1,111.76,366.02Z" fill="#2c282f"/>
      </g>
      <g id="Group_58" data-name="Group 58">
        <path id="Path_77" data-name="Path 77" d="M66.05,374.08c-.1,0-.21,0-.31-.01a5.639,5.639,0,0,1-4.16-2.35l.38-.31a5.177,5.177,0,0,0,3.81,2.17c3.1.17,6.05-2.65,6.25-2.86,2.53-3.39,7.02-2.76,7.21-2.73l.07.02c1.29.63,13.46-.2,18.04-.58,2.9-.3,14.23,1.63,14.71,1.72l-.08.48c-.12-.02-11.75-2.01-14.59-1.71-1.69.14-16.43,1.32-18.25.55-.4-.05-4.49-.47-6.74,2.56l-.02.03C72.24,371.19,69.34,374.08,66.05,374.08Z" fill="#2c282f"/>
      </g>
      <g id="Group_59" data-name="Group 59">
        <path id="Path_78" data-name="Path 78" d="M68.6,358.76l5.37,4.31s5.15-1.78,6.98,1.72l-1.51,1.15-12.93.53-2.13-3.29-.74-5.74Z" fill="#2c282f"/>
      </g>
      <g id="Group_60" data-name="Group 60">
        <path id="Path_79" data-name="Path 79" d="M56.36,369.84l.95,1.17s.99,1.42,2.05,1.03.13-.12.13-.12l.7-.91s-2.88,0-3.83-4l-.87.82" fill="#2c282f"/>
      </g>
      <g id="Group_61" data-name="Group 61">
        <path id="Path_80" data-name="Path 80" d="M95.43,340.81l-.84-1.78a197.154,197.154,0,0,1,44.63-14.51l.24-.04c24.96-4.7,27.89-5.11,31.44-4.35l-.4,1.93c-3.18-.68-6.33-.23-30.7,4.35l-.23.04A194.74,194.74,0,0,0,95.43,340.81Z" fill="#be2428"/>
      </g>
      <g id="Group_62" data-name="Group 62">
        <path id="Path_81" data-name="Path 81" d="M200.09,365.49a7.332,7.332,0,1,1-7.33-7.48A7.406,7.406,0,0,1,200.09,365.49Z" fill="#a0a3a8"/>
      </g>
      <g id="Group_63" data-name="Group 63">
        <path id="Path_82" data-name="Path 82" d="M200.09,368.4a4.481,4.481,0,1,1-4.48-4.57A4.524,4.524,0,0,1,200.09,368.4Z" fill="#b4bbc5"/>
      </g>
      <g id="Group_64" data-name="Group 64">
        <path id="Path_83" data-name="Path 83" d="M185.79,353.06l7.84,5.66s-6-.78-7.84,5.09,0,.21,0,.21l-4.17-11.33a27.5,27.5,0,0,0-2.77-3.37l-.16-.61.6-.29Z" fill="#2c282f"/>
      </g>
      <g id="Group_66" data-name="Group 66">
        <g id="Group_65" data-name="Group 65">
          <path id="Path_84" data-name="Path 84" d="M193.63,394.22c-15.95,0-28.93-12.42-28.93-27.69s12.98-27.69,28.93-27.69,28.93,12.42,28.93,27.69S209.58,394.22,193.63,394.22Zm0-49.95c-13.03,0-23.63,9.99-23.63,22.27s10.6,22.27,23.63,22.27,23.62-9.99,23.62-22.27S206.65,344.27,193.63,344.27Z" fill="#e3e8f1"/>
        </g>
      </g>
      <g id="Group_67" data-name="Group 67">
        <rect id="Rectangle_13" data-name="Rectangle 13" width="45.07" height="3.2" transform="translate(66.435 365.421) rotate(-2.722)" fill="#e3e8f1"/>
      </g>
      <g id="Group_68" data-name="Group 68">
        <path id="Path_85" data-name="Path 85" d="M168.4,319.59l-2.53-8.25h3.2l2.25,7.03Z" fill="#e3e8f1"/>
      </g>
      <g id="Group_69" data-name="Group 69">
        <path id="Path_86" data-name="Path 86" d="M193.63,396.78c-16.08,0-29.17-13.36-29.17-29.77s13.08-29.77,29.17-29.77,29.17,13.36,29.17,29.77S209.71,396.78,193.63,396.78Zm0-54.86c-13.56,0-24.58,11.26-24.58,25.09s11.03,25.09,24.58,25.09,24.58-11.26,24.58-25.09S207.18,341.92,193.63,341.92Z" fill="#010101"/>
      </g>
      <g id="Group_70" data-name="Group 70">
        <path id="Path_87" data-name="Path 87" d="M161.22,366.7c.47-15.45,10.7-28.43,25.11-31.91,0,0,8.28-3.36,15.88-1.07l-2.48,2.29s-18.5,1.16-26.59,10.23c0,0-7.43,7.99-8.09,14.39l28.85,8.46v3.55l-30.16,5.94s-3.14.66-3.47,0l-.33-.66,1.16-3.14C161.09,374.79,161.16,368.68,161.22,366.7Z" fill="#cdd0d0"/>
      </g>
      <g id="Group_71" data-name="Group 71">
        <path id="Path_88" data-name="Path 88" d="M161.81,366.02c.46-15.38,10.42-28.29,24.45-31.75,0,0,8.06-3.35,15.46-1.07l-2.41,2.28s-18.02,1.15-25.9,10.18c0,0-7.24,7.95-7.88,14.32l28.09,8.42v3.53l-29.38,5.91s-3.05.66-3.38,0l-.32-.66,1.12-3.12C161.67,374.07,161.75,367.99,161.81,366.02Z" fill="#fff"/>
      </g>
      <g id="Group_72" data-name="Group 72">
        <path id="Path_89" data-name="Path 89" d="M89.05,314.31H94.6l2.14-1.64,4.77,11.03H88.5l.55-8.6" fill="#9d2123"/>
      </g>
      <g id="Group_73" data-name="Group 73">
        <path id="Path_90" data-name="Path 90" d="M177.4,384.17l1.53-2.09s.88-.33.68.66l-1.73,2.01C177.88,384.74,177.03,384.67,177.4,384.17Z" fill="#2c282f"/>
      </g>
      <g id="Group_74" data-name="Group 74">
        <path id="Path_91" data-name="Path 91" d="M180.07,350.63c.06.07,1.07,6.52,2.04,8.17a1.618,1.618,0,0,0,.36,1.18l.24.56s-.08.98.44,1.2a.782.782,0,0,0,.92,0l1.05-.72-.4-.86-1.05.86a1.016,1.016,0,0,1-.4-.74s-.4-.16-.16-.45l1.21-.66-1.41.29-.32-.86-.53-.53s-1.25-5.33-1.45-6.16l-.12-1.27h-.42Z" fill="#2c282f"/>
      </g>
      <g id="Group_75" data-name="Group 75">
        <path id="Path_92" data-name="Path 92" d="M197.55,370.26a1.82,1.82,0,1,1-1.82-1.85A1.835,1.835,0,0,1,197.55,370.26Z" fill="#868b93"/>
      </g>
      <g id="Group_76" data-name="Group 76">
        <path id="Path_93" data-name="Path 93" d="M195.92,368.34a1.09,1.09,0,1,1,1.07-1.09A1.089,1.089,0,0,1,195.92,368.34Zm0-1.43a.35.35,0,1,0,.34.35A.346.346,0,0,0,195.92,366.91Z" fill="#dd2728"/>
      </g>
      <g id="Group_77" data-name="Group 77">
        <path id="Path_94" data-name="Path 94" d="M178.78,338.59l-.29-.66c2.73-3.48-2.29-13.38-2.34-13.48l-.01-.03-.09-.25c-.01.11-.02.21-.03.31a8.456,8.456,0,0,1-1.31,3.81l-.38-.3a8.9,8.9,0,0,0,1.28-5.15l-3.56-10.45,1.09,1.73a17.163,17.163,0,0,1,2.96,8.68l.49,1.45C176.86,324.8,181.88,334.64,178.78,338.59Zm-4.74-21.86,1.32,3.87A16.9,16.9,0,0,0,174.04,316.73Z" fill="#2c282f"/>
      </g>
      <g id="Group_78" data-name="Group 78">
        <path id="Path_95" data-name="Path 95" d="M174.08,326.78l-.48-.08c.71-4.63-1.82-12.6-1.84-12.68l.52-.14C172.38,314.2,174.8,322.04,174.08,326.78Z" fill="#2c282f"/>
      </g>
      <g id="Group_79" data-name="Group 79">
        <path id="Path_96" data-name="Path 96" d="M61.76,362.02c0,.18-1.21,2.46-1.21,2.46a1.431,1.431,0,0,0,0,1.46l.16,5.44h2.68l1.69-.37s1.65-3.26,4.05-3.02l-.07-2.34s-3.14-.19-3.47-2.24a1.941,1.941,0,0,1-.02-.24c-.12-2.26-1.93-1.44-1.93-1.44Z" fill="#e3e8f1"/>
      </g>
      <g id="Group_80" data-name="Group 80">
        <path id="Path_97" data-name="Path 97" d="M119.41,390.28l.02-3.09a.982.982,0,0,0-1.74-.18c-1.09,1.12-.03.31-.03.31s-1.74-2.59-3.7-1.25c0,0-1.1,1.9-1.56,1.01l-.16-.82s-.77-1.67-1.85.61-.28.58-.28.58l-1.9,4.26-.48,3.25,2.41.26a2.469,2.469,0,0,0,3.2,1.25l2.8-.61s.85.01,1.13-1.45l2.11-3.86" fill="#d7d7d7"/>
      </g>
      <g id="Group_82" data-name="Group 82">
        <g id="Group_81" data-name="Group 81">
          <path id="Path_98" data-name="Path 98" d="M115.54,388.61l-3.11-.41,2.41-18.6,3.11.41Z" fill="#d7d7d7"/>
        </g>
      </g>
      <g id="Group_83" data-name="Group 83">
        <path id="Path_99" data-name="Path 99" d="M112.26,386.25s-1.17-.43-1.74.37l-2.26,4.78s-.67.61.62.99l2.28.24s1.67-1.56,2.58.27l1.72-.19s.96.5,1.69-1.08c.03-.07.06-.14.09-.22a42.067,42.067,0,0,1,1.87-3.89s-.1-1.37-.9-.16l-2.65,4.36s-.91,1.08-1.75.43a2.315,2.315,0,0,0-2.94-.31l-1.27-.07s-.61,0,.56-1.8Z" fill="#302c2d"/>
      </g>
      <g id="Group_84" data-name="Group 84">
        <path id="Path_100" data-name="Path 100" d="M113.62,395.11c-.04.4-.64.67-1.34.6s-1.22-.46-1.18-.87.64-.68,1.34-.6S113.66,394.7,113.62,395.11Z" fill="#302c2d"/>
      </g>
      <g id="Group_85" data-name="Group 85">
        <path id="Path_101" data-name="Path 101" d="M165.33,312.46l5.07-.79.85,2.57-4.5,1.42-1.42-2.81" fill="#bab8b3"/>
      </g>
      <g id="Group_86" data-name="Group 86">
        <path id="Path_102" data-name="Path 102" d="M120.53,340.45c.14.36-.17.82-.69,1.03s-1.07.09-1.21-.27.17-.82.69-1.03S120.39,340.09,120.53,340.45Z" fill="#302c2d"/>
      </g>
      <g id="Group_87" data-name="Group 87">
        <path id="Path_103" data-name="Path 103" d="M115.4,358.9l2.2-14.28a4.869,4.869,0,0,0-.82-2.1l3.67-.06s-.21,1.19-.42,3.27.09.23.09.23l-1.26,13.36C118.87,359.32,117.22,357.4,115.4,358.9Z" fill="#d7d7d7"/>
      </g>
      <g id="Group_88" data-name="Group 88">
        <path id="Path_104" data-name="Path 104" d="M119.97,360.44a2.411,2.411,0,1,1-2.41-2.46A2.435,2.435,0,0,1,119.97,360.44Z" fill="#dd2728"/>
      </g>
      <g id="Group_89" data-name="Group 89">
        <path id="Path_105" data-name="Path 105" d="M158.64,335.73s7.41-1.63,9.65-1.01a1.5,1.5,0,0,1,.36.15c1.63.99,1.69.86,1.69.86l1.97-1.15s-.28-1.8.62-2.17l-.84-3.26-13.93,5.29.48,1.05" fill="#dd2728"/>
      </g>
      <path id="Path_106" data-name="Path 106" d="M97.66,327l-5.92-13.67,4.41-1.99,6.05,13.97a16.275,16.275,0,0,1-3.67,1.53A5.729,5.729,0,0,1,97.66,327Z" fill="#dd2728"/>
      <path id="Path_107" data-name="Path 107" d="M146.57,339.8a16.335,16.335,0,0,0,1.14,2.19c-.52.29-1.05.59-1.57.9a14.2,14.2,0,0,1-1.08-2.22C145.55,340.37,146.06,340.09,146.57,339.8Z" fill="#dd2728"/>
      <path id="Path_108" data-name="Path 108" d="M195.21,367.01l-.43-.35.05-.05c-7.49-7.18-17.95-32.37-18.36-33.37l1.12-.45-5.63-14.78-4.5,1.79.59,1.56a238.828,238.828,0,0,0-61.18,14.75l-1.48-3.42a17.267,17.267,0,0,1-3.92,1.61c-.21.05-.41.09-.6.13l1.49,3.45c-3.18,1.28-6.14,2.55-8.86,3.77-6.99,3.13-12.97,6.18-17.72,8.79a20.748,20.748,0,0,0,1.19,2.14c4.7-2.57,10.62-5.6,17.55-8.7,2.7-1.21,5.64-2.47,8.81-3.74l9.8,22.63,3.39,1.48,2.25-1.6c6.7-6.84,16.62-13.49,26.1-19.02a13.594,13.594,0,0,1-.82-1.58c-.1-.22-.19-.43-.27-.64-11.49,6.67-20.33,13.09-26.34,19.11l-9.59-22.15a236.284,236.284,0,0,1,61.11-14.62l1.52,4c-2.71,1.21-10.57,4.79-19.72,9.74-.06.03-.11.06-.17.09a22.578,22.578,0,0,0,1.13,2.19c9.1-4.94,16.88-8.5,19.64-9.73l1.73,4.54,1.14-.42c.43,1.06,10.47,25.4,18.37,33.67h0a.124.124,0,0,1,.02.03c.18.19.37.38.55.55l.03-.03a4.907,4.907,0,0,0,1.6.98,1.078,1.078,0,0,0,1.29-.49Z" fill="#dd2728"/>
      <path id="Path_109" data-name="Path 109" d="M149.32,338.27a21.681,21.681,0,0,0,1.13,2.19c-.49.27-.97.54-1.47.81a17.531,17.531,0,0,1-1.14-2.19C148.34,338.81,148.83,338.54,149.32,338.27Z" fill="#dd2728"/>
      <path id="Path_110" data-name="Path 110" d="M98.91,329.87l-.63-1.47c.2-.03.4-.08.61-.13a17.369,17.369,0,0,0,3.91-1.61l.69,1.6a15.711,15.711,0,0,1-3.46,1.42A5.7,5.7,0,0,1,98.91,329.87Z" fill="#dd2728"/>
      <path id="Path_111" data-name="Path 111" d="M100.27,333.02l-.75-1.73a7.509,7.509,0,0,0,.85-.17,17.387,17.387,0,0,0,3.71-1.5l.73,1.7a16.275,16.275,0,0,1-3.67,1.53A8.275,8.275,0,0,1,100.27,333.02Z" fill="#dd2728"/>
      <path id="Path_112" data-name="Path 112" d="M71.76,352.68A13.421,13.421,0,0,0,73,354.79q-.81.465-1.56.9a9.959,9.959,0,0,1-1.22-2.13C70.71,353.29,71.23,352.99,71.76,352.68Z" fill="#dd2728"/>
      <path id="Path_113" data-name="Path 113" d="M63.2,357.94c.05-.03,2.07-1.42,5.77-3.63a11.625,11.625,0,0,0,1.22,2.13c-.86.52-1.63.99-2.31,1.4l46.32,4.11-2.82,2.34L66.5,360.18l.14-1.57c-1.34.85-2.06,1.34-2.09,1.36Z" fill="#dd2728"/>
      <path id="Path_114" data-name="Path 114" d="M74.51,351.13a17.564,17.564,0,0,0,1.21,2.13q-.735.4-1.44.81a12.6,12.6,0,0,1-1.24-2.11C73.51,351.68,74,351.41,74.51,351.13Z" fill="#dd2728"/>
      <path id="Path_115" data-name="Path 115" d="M98.27,328.4l-.61-1.4a6.614,6.614,0,0,0,.88-.16,16.275,16.275,0,0,0,3.67-1.53l.59,1.36a17.566,17.566,0,0,1-3.91,1.61C98.67,328.33,98.47,328.37,98.27,328.4Z" fill="#fff"/>
      <path id="Path_116" data-name="Path 116" d="M99.52,331.29l-.62-1.42a6.312,6.312,0,0,0,1.12-.18,15.709,15.709,0,0,0,3.46-1.42l.59,1.36a17.176,17.176,0,0,1-3.71,1.5C100.07,331.2,99.79,331.25,99.52,331.29Z" fill="#fff"/>
      <path id="Path_117" data-name="Path 117" d="M100.88,334.42l-.61-1.4a6.214,6.214,0,0,0,.87-.16,16.275,16.275,0,0,0,3.67-1.53l.59,1.36a17.267,17.267,0,0,1-3.92,1.61Q101.165,334.36,100.88,334.42Z" fill="#fff"/>
      <path id="Path_118" data-name="Path 118" d="M143.79,341.39c.42-.24.84-.49,1.27-.73a14.219,14.219,0,0,0,1.08,2.22c-.42.24-.84.48-1.26.73a13.594,13.594,0,0,1-.82-1.58C143.96,341.81,143.87,341.6,143.79,341.39Z" fill="#fff"/>
      <path id="Path_119" data-name="Path 119" d="M147.85,339.08a17.533,17.533,0,0,0,1.14,2.19c-.42.24-.85.48-1.28.72a16.335,16.335,0,0,1-1.14-2.19C146.99,339.56,147.42,339.32,147.85,339.08Z" fill="#fff"/>
      <path id="Path_120" data-name="Path 120" d="M150.6,337.57a22.578,22.578,0,0,0,1.13,2.19c-.42.23-.85.46-1.28.7a21.681,21.681,0,0,1-1.13-2.19C149.75,338.04,150.17,337.8,150.6,337.57Z" fill="#fff"/>
      <path id="Path_121" data-name="Path 121" d="M70.23,353.57a10.473,10.473,0,0,0,1.22,2.13q-.66.39-1.26.75a11.53,11.53,0,0,1-1.22-2.13Q69.57,353.96,70.23,353.57Z" fill="#fff"/>
      <path id="Path_122" data-name="Path 122" d="M73.04,351.95a14.131,14.131,0,0,0,1.24,2.11c-.44.25-.87.49-1.28.73a13.423,13.423,0,0,1-1.24-2.11C72.17,352.44,72.6,352.2,73.04,351.95Z" fill="#fff"/>
      <path id="Path_123" data-name="Path 123" d="M75.79,350.42a20.748,20.748,0,0,0,1.19,2.14c-.43.24-.86.47-1.27.7a17.564,17.564,0,0,1-1.21-2.13C74.92,350.9,75.35,350.66,75.79,350.42Z" fill="#fff"/>
      <g id="Group_91" data-name="Group 91">
        <g id="Group_90" data-name="Group 90">
          <path id="Path_124" data-name="Path 124" d="M120.96,367.25a5.155,5.155,0,1,1-4.57-5.78A5.212,5.212,0,0,1,120.96,367.25Z" fill="#d7d7d7"/>
        </g>
      </g>
      <g id="Group_92" data-name="Group 92">
        <path id="Path_125" data-name="Path 125" d="M102.72,360.78c-1.63-21.88-18.61-39.08-39.3-39.08-16.16,0-30.05,10.49-36.14,25.51l-3.21,4.39,2.9,1.34,3.38,3.12,19.62,4.72,5.47,3.45,38.29-21.27s7.4,10.92,7.24,18.34l1.77,1.09v-1.61Z" fill="#d7d7d7"/>
      </g>
      <g id="Group_93" data-name="Group 93">
        <path id="Path_126" data-name="Path 126" d="M102.96,359.49c-1.63-20.7-18.61-36.97-39.3-36.97a39.433,39.433,0,0,0-36.14,24.13l-3.21,4.16,2.89,1.27,3.38,2.96,19.63,4.46,5.47,3.26,38.29-20.12s7.4,10.33,7.24,17.35l1.77,1.03v-1.53Z" fill="#fff"/>
      </g>
      <g id="Group_108" data-name="Group 108">
        <rect id="Rectangle_14" data-name="Rectangle 14" width="13.68" height="13.96" transform="translate(58.61 333.12)" fill="#faaf4a"/>
        <path id="Path_127" data-name="Path 127" d="M60.32,339.19l.36-.04.33,1.45.34-1.52.43-.05-.64,2.35-.27-.02Z" fill="#fff"/>
        <g id="Group_107" data-name="Group 107">
          <g id="Group_94" data-name="Group 94" clip-path="url(#clip-path)">
            <path id="Path_128" data-name="Path 128" d="M62.33,340.5a.6.6,0,0,0,.5.51.541.541,0,0,0,.45-.21l.58.02a1.056,1.056,0,0,1-1.01.81,1.272,1.272,0,0,1-.96-1.37,1.322,1.322,0,0,1,.96-1.42c.58-.07,1.09.57,1.09,1.36,0,.11-.02.21-.03.32Zm1.08-.57a.558.558,0,0,0-.56-.48.644.644,0,0,0-.53.52Z" fill="#fff"/>
          </g>
          <g id="Group_95" data-name="Group 95" clip-path="url(#clip-path)">
            <path id="Path_129" data-name="Path 129" d="M64.31,337.79l.6-.11v4.03l-.6-.05Z" fill="#fff"/>
          </g>
          <g id="Group_96" data-name="Group 96" clip-path="url(#clip-path)">
            <path id="Path_130" data-name="Path 130" d="M68.92,340.17a1.805,1.805,0,1,1-3.61.03,1.859,1.859,0,0,1,1.65-1.85,1.784,1.784,0,0,1,1.96,1.82m-2.66-.66a1.012,1.012,0,0,0-.25.69.973.973,0,0,0,.91,1,1.016,1.016,0,1,0,0-2.03.971.971,0,0,0-.66.34" fill="#fff"/>
          </g>
          <g id="Group_97" data-name="Group 97" clip-path="url(#clip-path)">
            <path id="Path_131" data-name="Path 131" d="M67.22,344.21a3.288,3.288,0,0,1-1.94-1.4.344.344,0,0,1,.02-.44.267.267,0,0,1,.39.08,2.512,2.512,0,0,0,1.53,1.05c1.54.31,3.05-1.12,3.05-3.23s-1.5-3.51-3.05-3.18a2.435,2.435,0,0,0-1.28.76.256.256,0,0,1-.4.03.367.367,0,0,1,.04-.46,3.351,3.351,0,0,1,1.65-1.05c2.02-.53,4.11,1.15,4.11,3.89s-2.1,4.44-4.12,3.95" fill="#fff"/>
          </g>
          <g id="Group_98" data-name="Group 98" clip-path="url(#clip-path)">
            <path id="Path_132" data-name="Path 132" d="M60.8,342.43c-.72-.16-1.24-1.19-1.24-2.33s.51-2.17,1.24-2.34a1.078,1.078,0,0,1,1.11.51.3.3,0,0,1-.02.34.159.159,0,0,1-.26,0,.817.817,0,0,0-.83-.42c-.57.11-.99.97-.99,1.92s.42,1.8.99,1.9a.835.835,0,0,0,.83-.44.159.159,0,0,1,.26,0,.286.286,0,0,1,.02.34,1.073,1.073,0,0,1-1.11.52" fill="#fff"/>
          </g>
          <g id="Group_99" data-name="Group 99" transform="translate(44.93 333.12)" clip-path="url(#clip-path-6)">
            <rect id="Rectangle_20" data-name="Rectangle 20" width="13.68" height="13.96" fill="#d02854"/>
          </g>
          <g id="Group_100" data-name="Group 100" clip-path="url(#clip-path)">
            <path id="Path_133" data-name="Path 133" d="M53.56,343.65l-.55-1.58H50.47l-.55,1.58H48.43l2.66-7.1h1.35l2.64,7.1Zm-1.47-4.22c-.14-.42-.28-.84-.34-1.11-.07.26-.21.69-.35,1.11l-.45,1.29h1.59Z" fill="#fff"/>
          </g>
          <g id="Group_101" data-name="Group 101" clip-path="url(#clip-path)">
            <path id="Path_134" data-name="Path 134" d="M48.14,340.3a.19.19,0,0,1-.24.12l-1.94-.67a.19.19,0,0,1-.12-.24l.16-.49a.176.176,0,0,1,.23-.12l1.94.66a.2.2,0,0,1,.12.24Z" fill="#f79751"/>
          </g>
          <g id="Group_102" data-name="Group 102" clip-path="url(#clip-path)">
            <path id="Path_135" data-name="Path 135" d="M48.04,341.85a.19.19,0,0,1-.12.24l-1.38.5a.18.18,0,0,1-.23-.12l-.16-.49a.19.19,0,0,1,.12-.24l1.38-.5a.2.2,0,0,1,.24.12Z" fill="#f79751"/>
          </g>
          <g id="Group_103" data-name="Group 103" clip-path="url(#clip-path)">
            <path id="Path_136" data-name="Path 136" d="M47.66,337.32a.19.19,0,0,0-.03.27l.88,1.2a.179.179,0,0,0,.26.03l.4-.32a.18.18,0,0,0,.03-.26l-.88-1.2a.19.19,0,0,0-.26-.04Z" fill="#f79751"/>
          </g>
          <g id="Group_104" data-name="Group 104" clip-path="url(#clip-path)">
            <path id="Path_137" data-name="Path 137" d="M55.36,340.3a.19.19,0,0,0,.24.12l1.94-.67a.19.19,0,0,0,.12-.24l-.16-.49a.183.183,0,0,0-.24-.12l-1.94.66a.2.2,0,0,0-.12.24Z" fill="#f79751"/>
          </g>
          <g id="Group_105" data-name="Group 105" clip-path="url(#clip-path)">
            <path id="Path_138" data-name="Path 138" d="M55.47,341.85a.19.19,0,0,0,.12.24l1.38.5a.2.2,0,0,0,.24-.12l.16-.49a.19.19,0,0,0-.12-.24l-1.38-.5a.2.2,0,0,0-.24.12Z" fill="#f79751"/>
          </g>
          <g id="Group_106" data-name="Group 106" clip-path="url(#clip-path)">
            <path id="Path_139" data-name="Path 139" d="M55.85,337.32a.19.19,0,0,1,.03.27l-.88,1.2a.179.179,0,0,1-.26.03l-.4-.32a.18.18,0,0,1-.03-.26l.88-1.2a.19.19,0,0,1,.26-.04Z" fill="#f79751"/>
          </g>
        </g>
      </g>
      <path id="Path_140" data-name="Path 140" d="M57,382.43a2.412,2.412,0,0,1-.21,1.25l-.28-.24.11-.96a1.533,1.533,0,0,0-.47-1.03,12.264,12.264,0,0,0-3.12-2.26c-.72-.39-1.05-.1-1.05-.1l-.74.52-.47-.21a2.3,2.3,0,0,1,.96-.74,1.75,1.75,0,0,0-2.31.75l-.02-.01a1.877,1.877,0,0,0,.04,2.56,2.391,2.391,0,0,1,.36-1.16l.36.37-.23.87s-.15.41.46.95a12.1,12.1,0,0,0,3.2,2.15,1.512,1.512,0,0,0,1.13.08l.87-.44.32.18a2.392,2.392,0,0,1-1.1.63s1.82.5,2.65-.56l.01.01C58.19,383.89,57,382.43,57,382.43Z" fill="#dd6a26"/>
      <path id="Path_141" data-name="Path 141" d="M209.37,354.8a2.513,2.513,0,0,1-.35,1.22l-.25-.27.22-.94a1.518,1.518,0,0,0-.35-1.08,12.221,12.221,0,0,0-2.84-2.6c-.67-.47-1.03-.22-1.03-.22l-.79.43-.44-.26a2.334,2.334,0,0,1,1.04-.63,1.766,1.766,0,0,0-2.39.48l-.01-.01a1.882,1.882,0,0,0-.25,2.55,2.394,2.394,0,0,1,.49-1.11l.32.41-.33.84s-.2.39.35.99a12.22,12.22,0,0,0,2.93,2.5,1.53,1.53,0,0,0,1.11.21l.91-.33.3.21a2.459,2.459,0,0,1-1.16.5s1.75.71,2.69-.25l.01.01C210.38,356.4,209.37,354.8,209.37,354.8Z" fill="#dd6a26"/>
      <rect id="Rectangle_29" data-name="Rectangle 29" width="0.4" height="14.94" transform="translate(167.312 291.044) rotate(-2.556)" fill="#2c282f"/>
      <g id="Group_109" data-name="Group 109">
        <path id="Path_142" data-name="Path 142" d="M192.16,276.01l-.29,13.38,5.15.15s-1.05-12.89-.81-13.33-.16,0-.16,0Z" fill="#dbdbda"/>
      </g>
      <g id="Group_110" data-name="Group 110">
        <path id="Path_143" data-name="Path 143" d="M190.98,291.29,161.8,275.53l.23-.44,29.18,15.77Z" fill="#2c282f"/>
      </g>
      <g id="Group_112" data-name="Group 112">
        <g id="Group_111" data-name="Group 111">
          <path id="Path_144" data-name="Path 144" d="M174.29,313.54a1,1,0,0,1-.38-.08l-.11-.05-4.69-3.84-.08-.23c-4.9-13.97-12.34-35.09-12.77-36.01.02.04.04.06.04.08l1.41-.96c.31.48,7.13,19.83,12.83,36.08l2.95,2.42a43.443,43.443,0,0,0-1.74-5.19l1.57-.64c2.74,7.06,2.1,7.7,1.67,8.12A1.012,1.012,0,0,1,174.29,313.54Z" fill="#bab8b3"/>
        </g>
      </g>
      <g id="Group_113" data-name="Group 113">
        <path id="Path_145" data-name="Path 145" d="M148.66,270.56a1.8,1.8,0,1,1-1.79-1.96A1.881,1.881,0,0,1,148.66,270.56Z" fill="#2d2a2c"/>
      </g>
      <g id="Group_115" data-name="Group 115">
        <g id="Group_114" data-name="Group 114">
          <path id="Path_146" data-name="Path 146" d="M190.11,305.04l.41,5.9h0l1.07-.08.73-5.83s2.34-2.52-.55-4C191.76,301.04,187.26,301.27,190.11,305.04Z" fill="#bab8b3"/>
        </g>
      </g>
      <g id="Group_117" data-name="Group 117">
        <g id="Group_116" data-name="Group 116">
          <path id="Path_147" data-name="Path 147" d="M187.21,308.72h0l.23.09.99-6.26-1.98,1.03Z" fill="#bab8b3"/>
        </g>
      </g>
      <g id="Group_118" data-name="Group 118">
        <path id="Path_148" data-name="Path 148" d="M167.23,289.81l-1.71-14.99v-.03a30.847,30.847,0,0,0,0-5.58c-.38-1.27-5.36-.81-6.42-.56l-.08-.52c-2.15.24,6.43-1.05,6.98.96l.01.04a31.474,31.474,0,0,1,0,5.69l1.79,15.97Z" fill="#2c282f"/>
      </g>
      <g id="Group_119" data-name="Group 119">
        <path id="Path_149" data-name="Path 149" d="M193.66,293.43l.02-1.12c0-.01.26-1.17-3.75-2.89l-28.85-15.44-.48-.83,29.54,15.82C196.42,291.97,193.73,293.27,193.66,293.43Z" fill="#2c282f"/>
      </g>
      <g id="Group_120" data-name="Group 120">
        <path id="Path_150" data-name="Path 150" d="M159.42,269.69h2.01s.36-.49,1.49-.41l3.98-.01s2.17.54,1.57,1.65c0,0-.88,1.01-3.46.49l-3.66-.53-2.25.21Z" fill="#bab8b3"/>
      </g>
      <g id="Group_121" data-name="Group 121">
        <path id="Path_151" data-name="Path 151" d="M161.35,274.7l6.39-.41s2.38-.33,1.25,1.35c0,0-4.99.82-7.08.49Z" fill="#bab8b3"/>
      </g>
      <g id="Group_122" data-name="Group 122">
        <path id="Path_152" data-name="Path 152" d="M196.82,289.79a7.253,7.253,0,0,1-1.22-.12l-3.73-.02.08-.58,3.71.11c1.51.26,1.98.01,2.11-.11a.219.219,0,0,0,.09-.16l-.02-.14.11-.08c1.47-1.22,1.42-8,1.28-10.51a1.6,1.6,0,0,0-.42-1.27,2.4,2.4,0,0,0-1.65-.48h-.04c-5.34-.28-5.46-.32-5.49-.34l.08-.23.05-.24c.2.03,3.32.21,5.37.32a2.765,2.765,0,0,1,2,.61,2,2,0,0,1,.57,1.62h0s.13,2.31.02,4.77c-.14,3.25-.61,5.29-1.4,6.05a.741.741,0,0,1-.21.4A1.6,1.6,0,0,1,196.82,289.79Z" fill="#bab8b3"/>
      </g>
      <g id="Group_123" data-name="Group 123">
        <rect id="Rectangle_30" data-name="Rectangle 30" width="4.34" height="0.49" transform="translate(191.88 280.03)" fill="#bab8b3"/>
      </g>
      <g id="Group_124" data-name="Group 124">
        <path id="Path_153" data-name="Path 153" d="M193.23,284.85c-1.4,0-1.47-.07-1.53-.13l.34-.35a.192.192,0,0,0-.08-.05c.24.06,2.47.04,4.45-.02l.01.49C194.93,284.83,193.92,284.85,193.23,284.85Z" fill="#bab8b3"/>
      </g>
      <g id="Group_125" data-name="Group 125">
        <rect id="Rectangle_31" data-name="Rectangle 31" width="3.32" height="0.6" transform="translate(196.42 283.04)" fill="#bab8b3"/>
      </g>
      <g id="Group_126" data-name="Group 126">
        <path id="Path_154" data-name="Path 154" d="M179.24,306.6l-4.03-4.05,1.39.01,3.32,3.34Z" fill="#bab8b3"/>
      </g>
      <g id="Group_127" data-name="Group 127">
        <path id="Path_155" data-name="Path 155" d="M186.99,303.24l-3.2-3.82.73-.64,3.21,3.82Z" fill="#bab8b3"/>
      </g>
      <g id="Group_128" data-name="Group 128">
        <path id="Path_156" data-name="Path 156" d="M191.48,301.91l-.28-.94a2.885,2.885,0,0,0,1.87-3.07c-.01-.07-.01-.14-.02-.22-.38-3.01-.51-8.08-.51-8.13l.97-.03c0,.05.13,5.07.5,8.03l.03.27A3.869,3.869,0,0,1,191.48,301.91Z" fill="#bab8b3"/>
      </g>
      <g id="Group_129" data-name="Group 129">
        <path id="Path_157" data-name="Path 157" d="M170.34,312.85c.3-.45,3.32-1.09,3.32-1.09l.63,1.77-3.95.99v-1.67Z" fill="#bab8b3"/>
      </g>
      <g id="Group_130" data-name="Group 130">
        <path id="Path_158" data-name="Path 158" d="M169.07,311.34c0,.31-.71.56-1.6.56s-1.6-.25-1.6-.56.71-.56,1.6-.56S169.07,311.03,169.07,311.34Z" fill="#bab8b3"/>
      </g>
      <g id="Group_132" data-name="Group 132">
        <g id="Group_131" data-name="Group 131">
          <path id="Path_159" data-name="Path 159" d="M175.12,309.01a3.545,3.545,0,0,1-2.31-.72,3.342,3.342,0,0,1-1.13-2.72l-13.04-33.64,1.29-1.64,12.33,32.08,10.94-3.52.06-.01c3.21-.52,3.31-2.53,3.31-2.61.01-.57.33-13.93,1.29-20.8.03-.24.07-.47.1-.69.46-2.81,1.1-4.06,2.15-4.2,1.16-.14,1.81,1.26,1.93,1.54l.07.16V301.7l-13.42,6.5A9.863,9.863,0,0,1,175.12,309.01Zm-2.24-5.03.52,1.35-.03.22a1.75,1.75,0,0,0,.5,1.4c.4.32,1.48.7,4.21-.34l12.35-5.99V272.63c-.04-.07-.08-.13-.12-.19a9.718,9.718,0,0,0-.68,2.59c-.03.2-.07.42-.1.65-.95,6.77-1.28,20.45-1.28,20.59,0,1.19-.98,3.64-4.67,4.27Z" fill="#bab8b3"/>
        </g>
      </g>
      <g id="Group_133" data-name="Group 133">
        <path id="Path_160" data-name="Path 160" d="M159.39,268.33l-1.25-.82,1.59,1.85.19.93a4.245,4.245,0,0,1-2.92,3.46,5.065,5.065,0,0,1-.79.24c-2.44.52-4.63-1.74-4.63-1.74,4.83-2.46,0-4.49,0-4.49l1.4-1.07a6.853,6.853,0,0,1,5.65,1.16" fill="#1a1618"/>
      </g>
      <path id="Path_161" data-name="Path 161" d="M159.97,270.15a3.33,3.33,0,1,1-3.33-3.37A3.35,3.35,0,0,1,159.97,270.15Z" fill="#1a1618"/>
      <path id="Path_162" data-name="Path 162" d="M158.51,267.45l2.33.15a.749.749,0,0,1,.24,1.16l-2.52.24Z" fill="#1a1618"/>
      <g id="Group_135" data-name="Group 135">
        <g id="Group_134" data-name="Group 134">
          <path id="Path_163" data-name="Path 163" d="M192.16,311.76a1.07,1.07,0,1,1-1.07-1.09A1.082,1.082,0,0,1,192.16,311.76Z" fill="#abaaaa"/>
        </g>
      </g>
      <g id="Group_137" data-name="Group 137">
        <g id="Group_136" data-name="Group 136">
          <path id="Path_164" data-name="Path 164" d="M188.43,308.65a1.07,1.07,0,1,1-1.07-1.09A1.082,1.082,0,0,1,188.43,308.65Z" fill="#abaaaa"/>
        </g>
      </g>
      <g id="Group_139" data-name="Group 139">
        <g id="Group_138" data-name="Group 138">
          <path id="Path_165" data-name="Path 165" d="M192.44,303.32a1.07,1.07,0,1,1-1.07-1.09A1.082,1.082,0,0,1,192.44,303.32Z" fill="#abaaaa"/>
        </g>
      </g>
      <g id="Group_140" data-name="Group 140">
        <path id="Path_166" data-name="Path 166" d="M71.07,285.43s3.22-1.97,7.88,0h4.66l7.72-.44s6.92-.34,6.92,3.5c0,0-1.13,2.03-7.88,1.37,0,0-9.17.83-9.01,1.65s-1.61,1.47-1.61,1.47l-6.43,2.3s-5.63.49-6.43-1.48v-2.3H64.15s-.48-6.08,2.74-5.91Z" fill="#1a1618"/>
      </g>
      <g id="Group_142" data-name="Group 142">
        <g id="Group_141" data-name="Group 141">
          <path id="Path_167" data-name="Path 167" d="M92.19,311.96l-6.76-16.24,2.89-1.25,6.76,16.24Z" fill="#b5b5b5"/>
        </g>
      </g>
      <g id="Group_144" data-name="Group 144">
        <g id="Group_143" data-name="Group 143">
          <path id="Path_168" data-name="Path 168" d="M82.37,302.55l2.08-.72s2.91,7.22,5.8,9.85l-1.75,1.18A29.086,29.086,0,0,1,82.37,302.55Z" fill="#b5b5b5"/>
        </g>
      </g>
      <g id="Group_146" data-name="Group 146">
        <g id="Group_145" data-name="Group 145">
          <path id="Path_169" data-name="Path 169" d="M86.31,297.52a2.371,2.371,0,1,1-2.37-2.42A2.392,2.392,0,0,1,86.31,297.52Z" fill="#b5b5b5"/>
        </g>
      </g>
      <g id="Group_147" data-name="Group 147">
        <path id="Path_170" data-name="Path 170" d="M148.97,270.63a2.113,2.113,0,1,1-2.1-2.3A2.207,2.207,0,0,1,148.97,270.63Z" fill="#1a1618"/>
      </g>
      <g id="Group_149" data-name="Group 149">
        <g id="Group_148" data-name="Group 148">
          <rect id="Rectangle_32" data-name="Rectangle 32" width="3.19" height="17.57" transform="matrix(0.92, -0.391, 0.391, 0.92, 84.763, 297.12)" fill="#b5b6b6"/>
        </g>
      </g>
      <g id="Group_151" data-name="Group 151">
        <g id="Group_150" data-name="Group 150">
          <path id="Path_171" data-name="Path 171" d="M81.65,303.91l2.11-.72s2.95,7.18,5.9,9.8l-1.78,1.18A28.682,28.682,0,0,1,81.65,303.91Z" fill="#b5b6b6"/>
        </g>
      </g>
      <g id="Group_153" data-name="Group 153">
        <g id="Group_152" data-name="Group 152">
          <path id="Path_172" data-name="Path 172" d="M85.66,298.9a2.41,2.41,0,1,1-2.41-2.41A2.411,2.411,0,0,1,85.66,298.9Z" fill="#b5b6b6"/>
        </g>
      </g>
      <g id="Group_154" data-name="Group 154">
        <path id="Path_173" data-name="Path 173" d="M78.53,299.08a7.461,7.461,0,0,1-3.93-1.12l.42-.6a6.617,6.617,0,0,0,2.86.95,3.564,3.564,0,0,0,2.71-.56,2.425,2.425,0,0,1,.3-.24,8.247,8.247,0,0,1,3.5-1.37h.03a6.705,6.705,0,0,0,6.17-3.87l.69.25a7.453,7.453,0,0,1-6.81,4.35,7.606,7.606,0,0,0-3.13,1.23c-.09.07-.17.13-.25.2A3.874,3.874,0,0,1,78.53,299.08Z" fill="#d8d7d7"/>
      </g>
      <g id="Group_155" data-name="Group 155">
        <path id="Path_174" data-name="Path 174" d="M146.19,268.33l5.28-.27s3.78,1.86.3,4.19H147S148.77,269.48,146.19,268.33Z" fill="#1a1618"/>
      </g>
      <path id="Path_175" data-name="Path 175" d="M106.93,219.08s-7.01,3.27,3.79,14.91c8.95,9.65,12.87,15.15,18.24,17.58.21.09,16.75,17.96,22.21,17.76,0,0,4.44-2.25-.29-2.62s-20.73-23.76-20.73-23.76S110.14,216.23,106.93,219.08Z" fill="#eac9bc"/>
      <path id="Path_176" data-name="Path 176" d="M99.1,383.98s-2.01,4.4-.95,6.82c0,0,11.36,3.23,21.1,2.07,0,0,1.65-3.44-5.36-6.3A40.75,40.75,0,0,0,99.1,383.98Z" fill="#28445c"/>
      <path id="Path_177" data-name="Path 177" d="M99.81,376.85l-.6,7.59s1.06,2.19,4.45,1.7,3.15-1.34,3.15-1.34-2.63-1.03-2.21-8.04Z" fill="#fbbd91"/>
      <path id="Path_178" data-name="Path 178" d="M83.89,265.3s35.85,18.74,42.88,22.44c9.99,5.25-5.28,29.23-10.63,35.28,0,0-4.66-.12-6.75-2.68,0,0,6.74-11.87,8.73-21.56,0,0-23.54-2.03-33.4-8.2S79.56,265.57,83.89,265.3Z"/>
      <path id="Path_179" data-name="Path 179" d="M82.69,273.06s-16.3-3.47-15.32,1.97c0,0-3.33,7.61,4.86,16.07L85.17,334s8.9,31.61,14.29,47.21c0,0,3.43,1.6,6.29-.5,0,0-5.63-37.2-7.23-60.57C98.52,320.15,96.25,263.97,82.69,273.06Z" fill="#121f28"/>
      <path id="Path_180" data-name="Path 180" d="M101.1,253.05a24.794,24.794,0,0,1,5.51-4.66s4.67-.87,6.07-3.01c0,0,2.37-6.21,2.47-9.81s-9.9-2.14-9.9-2.14l-6.31,8.74Z" fill="#fbb04a"/>
      <path id="Path_181" data-name="Path 181" d="M113.89,237.71l-3.8-3.06-.3-7.15-2.81-15.13c-14.29,1.93-30.12,13.72-35.83,30.48a79.741,79.741,0,0,1-6.2,12.33c-3.74,6.07-4.26,11.82-1.29,18.74,0,0-1.49,3.71,4.44,1.31,0,0,26.47-2,28.61-4.19,0,0,1.09-.47,1.37-1.09,4.63-9.94,6.02-23.3,6.02-23.3l7.07-5.16,2.72-3.78" fill="#fbb04a"/>
      <path id="Path_182" data-name="Path 182" d="M176.78,215.57c.37-1.09,1.1-1.96,1.62-1.96a32.5,32.5,0,0,1,5.78,1.62c.58.25.66.64.52.93a4.709,4.709,0,0,1-1.44,1.42c-2.27,1.82-5.84-.04-6.21-.04C176.52,217.53,176.4,216.66,176.78,215.57Z" fill="#e0beb6"/>
      <path id="Path_183" data-name="Path 183" d="M98.31,389.26s-1.06-1.28-.01,1.14c0,0,11.36,3.23,21.1,2.07l-.01-.87C111.31,392.73,98.31,389.26,98.31,389.26Z" fill="#fff"/>
      <path id="Path_184" data-name="Path 184" d="M181.46,214.63c.04.56,2.73.99,3.13.96.18-.01,1.23-.31,2.48-.52a10.3,10.3,0,0,0,2.95-.72c.2-.13.23-.2.23-.38,0-.09-.05-.24-.3-.29-1.26-.28-10.98-.14-11.32-.11C178.23,213.59,181.42,214.07,181.46,214.63Z" fill="#eac9bc"/>
      <path id="Path_185" data-name="Path 185" d="M182.69,218.38c-.53.03-1.05-.18-1.15-.46a13.779,13.779,0,0,1-.55-3.36c.02-.47.17-.62.45-.61.13,0,.29.06.5.41a26.249,26.249,0,0,1,1.54,3.46C183.58,218.1,183.23,218.35,182.69,218.38Z" fill="#eac9bc"/>
      <path id="Path_186" data-name="Path 186" d="M179.85,218.87c-.49-.1-.87-.38-.85-.63a19.515,19.515,0,0,1,.95-2.9c.13-.3.32-.36.45-.32.23.08.35.22.42.63a13.528,13.528,0,0,1-.05,2.95C180.75,218.84,180.34,218.97,179.85,218.87Z" fill="#eac9bc"/>
      <path id="Path_187" data-name="Path 187" d="M177.55,218.45c-.4-.13-.67-.4-.61-.6a6.567,6.567,0,0,1,1.25-2.31.47.47,0,0,1,.59-.1.421.421,0,0,1,.21.44,18.672,18.672,0,0,1-.6,2.46C178.34,218.53,177.96,218.59,177.55,218.45Z" fill="#eac9bc"/>
      <path id="Path_188" data-name="Path 188" d="M189.3,214.33s.09-.14,0-.65a4.188,4.188,0,0,1,.46.03c.24.03.32.09.37.19a.305.305,0,0,1-.23.4A2.571,2.571,0,0,1,189.3,214.33Z" fill="#c92929"/>
      <path id="Path_189" data-name="Path 189" d="M117.54,225.6s-2.95-7.15,12.89-8.4c13.12-1.04,19.24-2.35,25.33-1.75.23.02,23.68-4.3,27.57-.46,0,0,2.6.56-.06.43-4.74-.23-32.47,7.18-32.47,7.18S117.97,229.86,117.54,225.6Z" fill="#eac9bc"/>
      <g id="Group_157" data-name="Group 157">
        <g id="Group_156" data-name="Group 156">
          <path id="Path_190" data-name="Path 190" d="M154.16,267.28c-.56.01-1.01.35-1,.76,0,.18.25,1.25.41,2.51a10.126,10.126,0,0,0,.59,2.98c.12.2.19.24.36.25.09.01.24-.04.3-.29a34.146,34.146,0,0,0,.36-5.48C155.18,267.59,154.72,267.26,154.16,267.28Z" fill="#eac9bc"/>
          <path id="Path_191" data-name="Path 191" d="M152.27,266.75c-.56.01-1.01.35-1,.76a27.2,27.2,0,0,0,.71,4.76c.2.66.41.85.69.81.14-.02.28-.11.36-.62a41.822,41.822,0,0,0,.27-4.99C153.29,267.06,152.83,266.74,152.27,266.75Z" fill="#eac9bc"/>
          <path id="Path_192" data-name="Path 192" d="M149.63,266.78c-.48.13-.8.51-.71.87a41.3,41.3,0,0,0,1.84,4.09c.23.42.44.52.56.46.22-.1.31-.3.26-.87a26.965,26.965,0,0,0-.91-4.13A.813.813,0,0,0,149.63,266.78Z" fill="#eac9bc"/>
          <path id="Path_193" data-name="Path 193" d="M147.53,267.24c-.38.18-.59.54-.46.82a13.918,13.918,0,0,0,1.98,3.27c.27.26.47.3.66.16.11-.09.18-.29.09-.61a37.009,37.009,0,0,0-1.34-3.46A.693.693,0,0,0,147.53,267.24Z" fill="#eac9bc"/>
        </g>
        <path id="Path_194" data-name="Path 194" d="M148.86,270.84a3.294,3.294,0,0,0,.71-.32s.07.21.13.45.02.33-.06.41-.24.06-.44-.12A4.1,4.1,0,0,1,148.86,270.84Z" fill="#c92929"/>
        <path id="Path_195" data-name="Path 195" d="M150.71,271.29a2.764,2.764,0,0,0,.77-.13,2.991,2.991,0,0,1,0,.46c-.01.24-.07.32-.16.38s-.25-.01-.4-.24A3.069,3.069,0,0,1,150.71,271.29Z" fill="#c92929"/>
        <path id="Path_196" data-name="Path 196" d="M152.15,272.13a2.886,2.886,0,0,0,.78-.04,4.1,4.1,0,0,1-.05.46c-.03.24-.1.31-.2.36s-.25-.04-.37-.28A3.7,3.7,0,0,1,152.15,272.13Z" fill="#c92929"/>
        <path id="Path_197" data-name="Path 197" d="M154.21,272.8s.14.1.64.03a4.361,4.361,0,0,1-.05.46c-.04.24-.1.31-.21.36a.3.3,0,0,1-.38-.25A2.356,2.356,0,0,1,154.21,272.8Z" fill="#c92929"/>
      </g>
      <path id="Path_198" data-name="Path 198" d="M109.77,217.82s5.19,9.95,13.68,10.63c7,.56,38.76-6.61,43.76-8.84a2.151,2.151,0,0,0,1.37-2.41c-.38-1.56-1.16-3.81-2.61-4.89-2.34-1.73-3.19-1.28-9.49-.08s-12.64,2.92-16.36,2.08a91.812,91.812,0,0,0-9.44-1.36A49.391,49.391,0,0,0,109.77,217.82Z" fill="#cc7329"/>
      <path id="Path_199" data-name="Path 199" d="M104.66,212.57s-5.44,10.34.19,16.46c4.46,4.84,6.04,8.34,10.47,16.91,3.83,7.41,19.37,18.54,24.73,22.21a2.554,2.554,0,0,0,3.29-.11c1.34-1.35,3.14-3.54,3.33-5.67.3-3.44-.69-4.02-5.81-9.66s-11.35-7.04-12.8-11.32-3.93-14.33-3.93-14.33S122.29,209.08,104.66,212.57Z" fill="#d78228"/>
      <g id="Group_179" data-name="Group 179">
        <path id="Path_200" data-name="Path 200" d="M99.7,273.86c-7.24,1.14-37.15,5.83-35.35,5.54l-.41.07-1.02-6.92c3.05-.41,7.88-1.07,7.84-1.06,6.77-.92,20.23-2.74,27.67-3.74Z" fill="#d12853"/>
        <g id="Group_178" data-name="Group 178" opacity="0.53">
          <g id="Group_158" data-name="Group 158">
            <path id="Path_201" data-name="Path 201" d="M64.35,279.41l-.41.06-1.02-6.92.49-.07Z" fill="#a91e23"/>
          </g>
          <g id="Group_159" data-name="Group 159">
            <path id="Path_202" data-name="Path 202" d="M66.2,279.12l-.83.13-.95-6.91.83-.11Z" fill="#a91e23"/>
          </g>
          <g id="Group_160" data-name="Group 160">
            <path id="Path_203" data-name="Path 203" d="M68.05,278.82l-.83.14-.97-6.86.84-.12Z" fill="#a91e23"/>
          </g>
          <g id="Group_161" data-name="Group 161">
            <path id="Path_204" data-name="Path 204" d="M69.9,278.53l-.83.14-.98-6.82.84-.12Z" fill="#a91e23"/>
          </g>
          <g id="Group_162" data-name="Group 162">
            <path id="Path_205" data-name="Path 205" d="M71.75,278.24l-.83.14-.99-6.78.84-.12Z" fill="#a91e23"/>
          </g>
          <g id="Group_163" data-name="Group 163">
            <path id="Path_206" data-name="Path 206" d="M73.61,277.95l-.83.14-1.01-6.74.84-.11Z" fill="#a91e23"/>
          </g>
          <g id="Group_164" data-name="Group 164">
            <path id="Path_207" data-name="Path 207" d="M75.46,277.66l-.83.14-1.02-6.7.84-.11Z" fill="#a91e23"/>
          </g>
          <g id="Group_165" data-name="Group 165">
            <path id="Path_208" data-name="Path 208" d="M77.31,277.37l-.83.14-1.02-6.66.83-.11Z" fill="#a91e23"/>
          </g>
          <g id="Group_166" data-name="Group 166">
            <path id="Path_209" data-name="Path 209" d="M79.16,277.08l-.83.14L77.3,270.6l.83-.11Z" fill="#a91e23"/>
          </g>
          <g id="Group_167" data-name="Group 167">
            <path id="Path_210" data-name="Path 210" d="M81.02,276.79l-.83.13-1.05-6.57.83-.11Z" fill="#a91e23"/>
          </g>
          <g id="Group_168" data-name="Group 168">
            <path id="Path_211" data-name="Path 211" d="M82.87,276.5l-.83.13-1.06-6.53.83-.11Z" fill="#a91e23"/>
          </g>
          <g id="Group_169" data-name="Group 169">
            <path id="Path_212" data-name="Path 212" d="M84.73,276.21l-.83.13-1.07-6.49.83-.11Z" fill="#a91e23"/>
          </g>
          <g id="Group_170" data-name="Group 170">
            <path id="Path_213" data-name="Path 213" d="M86.58,275.92l-.83.13-1.08-6.45.83-.11Z" fill="#a91e23"/>
          </g>
          <g id="Group_171" data-name="Group 171">
            <path id="Path_214" data-name="Path 214" d="M88.44,275.63l-.83.13-1.1-6.4.84-.12Z" fill="#a91e23"/>
          </g>
          <g id="Group_172" data-name="Group 172">
            <path id="Path_215" data-name="Path 215" d="M90.3,275.34l-.83.13-1.11-6.37.83-.11Z" fill="#a91e23"/>
          </g>
          <g id="Group_173" data-name="Group 173">
            <path id="Path_216" data-name="Path 216" d="M92.16,275.05l-.83.13h-.01l-1.11-6.33.83-.11Z" fill="#a91e23"/>
          </g>
          <g id="Group_174" data-name="Group 174">
            <path id="Path_217" data-name="Path 217" d="M94.01,274.76l-.83.12-1.13-6.27.84-.12Z" fill="#a91e23"/>
          </g>
          <g id="Group_175" data-name="Group 175">
            <path id="Path_218" data-name="Path 218" d="M95.87,274.46l-.82.13-1.15-6.24.83-.11Z" fill="#a91e23"/>
          </g>
          <g id="Group_176" data-name="Group 176">
            <path id="Path_219" data-name="Path 219" d="M97.73,274.17l-.82.13-1.16-6.19.83-.12Z" fill="#a91e23"/>
          </g>
          <g id="Group_177" data-name="Group 177">
            <path id="Path_220" data-name="Path 220" d="M99.6,273.88l-.83.13-1.17-6.16.83-.11Z" fill="#a91e23"/>
          </g>
        </g>
      </g>
      <g id="Group_185" data-name="Group 185">
        <path id="Path_221" data-name="Path 221" d="M172.94,212.3c.02.04,2.62,5.71,2.62,5.71l-7.7,2.08c-2.22-1.38-3.26-5.29-3.49-7.51-.02-.17-.03-.27-.03-.27C165.22,212.32,161.16,212.33,172.94,212.3Z" fill="#d12853"/>
        <g id="Group_180" data-name="Group 180" opacity="0.43">
          <path id="Path_222" data-name="Path 222" d="M172.94,212.3l.39.85-8.8.42c-.08-.42-.13-.76-.15-.98l5.79-.28Z" fill="#991c1f"/>
        </g>
        <g id="Group_181" data-name="Group 181" opacity="0.43">
          <path id="Path_223" data-name="Path 223" d="M173.48,213.48l.44.95-8.93,1.08c-.1-.34-.18-.66-.26-.97Z" fill="#991c1f"/>
        </g>
        <g id="Group_182" data-name="Group 182" opacity="0.43">
          <path id="Path_224" data-name="Path 224" d="M174.66,216.04l.43.94-8.56,1.85a9.377,9.377,0,0,1-.58-.91Z" fill="#991c1f"/>
        </g>
        <g id="Group_183" data-name="Group 183" opacity="0.43">
          <path id="Path_225" data-name="Path 225" d="M174.05,214.71l.43.94-8.88,1.56c-.14-.31-.26-.64-.37-.95Z" fill="#991c1f"/>
        </g>
        <g id="Group_184" data-name="Group 184" opacity="0.43">
          <path id="Path_226" data-name="Path 226" d="M175.26,217.34l.31.67-7.7,2.08a4.487,4.487,0,0,1-.83-.68Z" fill="#991c1f"/>
        </g>
      </g>
      <path id="Path_227" data-name="Path 227" d="M139.3,196.71a21.4,21.4,0,0,0,.22,2.76c1.21,6.17-.71,4.85-2.57,4.94-1.61.08-1.9-1.59-1.81-2.79a2.3,2.3,0,0,1,.6-1.6" fill="#eac9bc"/>
      <path id="Path_228" data-name="Path 228" d="M138.21,185.44s.03.06.07.16c.35.85,1.87,3.07,1.67,5.74-.02.24-.82,6.76-.82,6.76s-.92,4.82-1.62,5.54c0,0-2.82,6.53-5.11,8.23,0,0-.48,1.71-1.99,1.28l-2.62.04-4.39,4.23-5.91-19.22,4.85-8.4" fill="#eac9bc"/>
      <path id="Path_229" data-name="Path 229" d="M137.31,199.32s.56-.63.04-1.11a3.055,3.055,0,0,0-2.97-.07c-.83.48-1.53.83-.51,1.31S136.79,199.99,137.31,199.32Z" fill="#f8f4e4"/>
      <path id="Path_230" data-name="Path 230" d="M125.64,191.67s-.98,15.53.55,25.4c0,0-.84-17.58,2.24-22.23Z" fill="#000004"/>
      <path id="Path_231" data-name="Path 231" d="M124.62,190.7s.99,18.16,4.12,29.4c0,0-3.39-20.29-.46-26.11Z" fill="#121f28"/>
      <path id="Path_232" data-name="Path 232" d="M139.87,191.86s-4.15,3.79-8.34,2.83l-.67-1.86.05,1.98a10.333,10.333,0,0,1-2.1-.03s-2.9,1.17-2.38-8.06a18.286,18.286,0,0,1,1.48-4.13s-1.37-7.29,4.49-3.59c0,0,8.83-.19,8.06,11.68" fill="#0f1a24"/>
      <path id="Path_233" data-name="Path 233" d="M132.27,200.73c0-.08-.13-.15-.3-.15s-.3.07-.3.15a.317.317,0,0,0,.3.24A.307.307,0,0,0,132.27,200.73Z" fill="#b64f4a"/>
      <path id="Path_234" data-name="Path 234" d="M132.29,202.44a.166.166,0,0,0,.13.16.145.145,0,0,0,.15-.1.128.128,0,0,0-.1-.14C132.39,202.35,132.3,202.39,132.29,202.44Z" fill="#b64f4a"/>
      <path id="Path_235" data-name="Path 235" d="M132.6,203.66c-.04.05.04.25.17.35a.286.286,0,0,0,.33.05c.04-.05,0-.2-.14-.3S132.64,203.61,132.6,203.66Z" fill="#b64f4a"/>
      <path id="Path_236" data-name="Path 236" d="M130.36,203.28c.05.07.2.04.33-.06s.2-.24.15-.3a.309.309,0,0,0-.38,0A.293.293,0,0,0,130.36,203.28Z" fill="#b64f4a"/>
      <path id="Path_237" data-name="Path 237" d="M137.68,197.96h0a.244.244,0,0,1-.07.01c-.02,0-.05.01-.08.01s-.06.01-.09.01a.67.67,0,0,1-.2,0h0c.2-.17.19-.31.19-.31a1.323,1.323,0,0,1-.61.16c-.03-.01-.07-.03-.1-.04a2.827,2.827,0,0,0-.44-.13,2.739,2.739,0,0,0-.5-.07,3.252,3.252,0,0,0-.54.02,2.331,2.331,0,0,0-.52.13,2.8,2.8,0,0,0-.46.22,2.716,2.716,0,0,0-.37.27,2.464,2.464,0,0,0-.28.28,1.883,1.883,0,0,0-.19.26c-.05.08-.1.15-.13.21-.06.12-.09.19-.09.19s0,.01.01.02h.02s.05-.06.14-.16c.05-.05.1-.11.17-.17s.15-.13.24-.21.19-.14.3-.21a3.038,3.038,0,0,1,.36-.19,2.7,2.7,0,0,1,.4-.14,2.968,2.968,0,0,1,.43-.06,2.583,2.583,0,0,1,.84.09,2.4,2.4,0,0,1,.38.12c.06.02.12.05.17.07l.05.02c.02.01.03.01.05.02a.528.528,0,0,0,.12.03.974.974,0,0,0,.24.02.785.785,0,0,0,.22-.05.624.624,0,0,0,.26-.19.542.542,0,0,0,.09-.16.322.322,0,0,1,.02-.06h0A.037.037,0,0,0,137.68,197.96Z" fill="#010101"/>
      <path id="Path_238" data-name="Path 238" d="M135.22,196.21a12.523,12.523,0,0,1,2.79.16c.19,0,.38.07.38.27s-.23.49-.38.49c-.09,0-1.65-.52-2.32-.63-.42-.07-2.06.84-2.18.78C133.3,197.17,135.18,196.23,135.22,196.21Z" fill="#121f28"/>
      <g id="Group_186" data-name="Group 186">
        <path id="Path_239" data-name="Path 239" d="M136.51,198.71c-.08-.27-.51-.36-.79-.29s-.42.27-.33.63a.629.629,0,0,0,.71.4A.587.587,0,0,0,136.51,198.71Z" fill="#4f8460"/>
        <path id="Path_240" data-name="Path 240" d="M136.21,198.84c-.03-.12-.23-.16-.35-.13a.219.219,0,0,0-.16.28.262.262,0,0,0,.32.16A.3.3,0,0,0,136.21,198.84Z" fill="#162c1c"/>
        <path id="Path_241" data-name="Path 241" d="M135.98,198.89c.03.07.15.07.22.04a.124.124,0,0,0,.06-.18.155.155,0,0,0-.2-.06A.173.173,0,0,0,135.98,198.89Z" fill="#fff"/>
      </g>
      <path id="Path_242" data-name="Path 242" d="M131.8,208.47a3.446,3.446,0,0,0,1.92,1.75c.02.01.05.02.07.03,0,0,.99-.15.59-.67" fill="#c92929"/>
      <path id="Path_243" data-name="Path 243" d="M134.44,209.58a9.327,9.327,0,0,1-2.24-.87s-1.21-.64-.35-.53a14.143,14.143,0,0,0,2.02.03c.49.02.77.64,1.04.72C134.91,208.94,134.98,209.71,134.44,209.58Z" fill="#af2224"/>
      <path id="Path_244" data-name="Path 244" d="M137.19,204.34c-.93.19-1.46-.45-1.41-.97a.9.9,0,0,1,.35-.7s-.4.62-.12.92a2.216,2.216,0,0,0,1.27.62C137.27,204.21,137.36,204.31,137.19,204.34Z" fill="#d8b4a9"/>
      <g id="Group_187" data-name="Group 187">
        <path id="Path_245" data-name="Path 245" d="M125.65,206.38a.535.535,0,0,0,.64.49.546.546,0,0,0,.49-.64.574.574,0,0,0-.24-.33.546.546,0,0,0-.4-.09A.556.556,0,0,0,125.65,206.38Z" fill="none"/>
        <path id="Path_246" data-name="Path 246" d="M125.58,203.14l.78-.28-.04-.19-1.17.45v.15l1.36.17-.06-.23Z" fill="#f2d65e"/>
        <path id="Path_247" data-name="Path 247" d="M125.14,204.21a.585.585,0,0,0,.52.49l-.03-.31a.264.264,0,0,1-.15-.23.313.313,0,0,1,.24-.3l.1.85a1.087,1.087,0,0,0,.18-.01c.44-.06.76-.37.69-.69a.751.751,0,0,0-.86-.42C125.44,203.64,125.13,203.91,125.14,204.21Zm1.21-.16a.31.31,0,0,1-.23.33l-.1-.58A.364.364,0,0,1,126.35,204.05Z" fill="#f2d65e"/>
        <path id="Path_248" data-name="Path 248" d="M127.48,205.04l-.1-.32-2.16.28.01.33Z" fill="#f2d65e"/>
        <path id="Path_249" data-name="Path 249" d="M125.2,206.44a1,1,0,0,0,1.16.95.983.983,0,0,0,.88-1.18,1.032,1.032,0,0,0-1.14-.76A.99.99,0,0,0,125.2,206.44Zm1.34-.54a.5.5,0,0,1,.24.33.57.57,0,1,1-1.13.15.556.556,0,0,1,.5-.57A.532.532,0,0,1,126.54,205.9Z" fill="#f2d65e"/>
        <path id="Path_250" data-name="Path 250" d="M124,206.75c-.14,1.13.96,2.14,2.49,1.94s2.32-1.44,1.89-2.5a1.768,1.768,0,0,0-.7-.81.194.194,0,0,0-.25.01.145.145,0,0,0,.04.22,1.389,1.389,0,0,1,.52.64c.29.81-.39,1.72-1.57,1.87s-2.07-.56-2.01-1.42a1.367,1.367,0,0,1,.48-.9.15.15,0,0,0,.02-.22.2.2,0,0,0-.25.02A1.775,1.775,0,0,0,124,206.75Z" fill="#f2d65e"/>
        <path id="Path_251" data-name="Path 251" d="M124.55,203.16a.56.56,0,0,0,.37.56.156.156,0,0,0,.18-.04.084.084,0,0,0-.01-.14.442.442,0,0,1-.3-.42c.02-.32.46-.61.99-.67s1.04.1,1.14.4a.454.454,0,0,1-.18.48c-.04.04-.03.1.03.14a.165.165,0,0,0,.19-.01.573.573,0,0,0,.2-.64c-.14-.38-.76-.58-1.39-.5S124.58,202.76,124.55,203.16Z" fill="#f2d65e"/>
      </g>
      <path id="Path_252" data-name="Path 252" d="M127.85,192.69l12.65-1.96c.58-20.3-31.79-15.34-31.29,1.2.24,7.9-4.01,20.89,4.74,32.86,3.49,4.77,7.05,7.43,11.5,10.49.55.38.3-3.23.3-4.71l.61,5.44c.19,1.68,3.81,2.44,5.66,3.82C124.01,213.05,124.44,194.58,127.85,192.69Z" fill="#121f28"/>
    </g>
  </g>
</svg>
