<svg xmlns="http://www.w3.org/2000/svg" width="123.5" height="123.5" viewBox="0 0 123.5 123.5"><rect width="123.5" height="123.5" fill="#f9b23e"/><path d="M159.5,61.494l3.225-.349,2.963,12.725,3.05-13.335,3.835-.436-5.665,20.743-2.528-.174Z" transform="translate(-143.986 -7.719)" fill="#fff"/><path d="M179.709,72.71c.61,2.615,2.353,4.358,4.445,4.445a4.778,4.778,0,0,0,4.1-1.917l5.229.174c-1.22,4.358-5.317,7.5-9.151,7.147-4.968-.436-8.628-5.839-8.628-12.115,0-6.362,3.661-12.028,8.716-12.55,5.317-.61,9.849,5.055,9.849,12.028,0,.959-.174,1.917-.261,2.876Zm9.674-4.968c-.784-2.789-2.789-4.445-5.055-4.271A5.719,5.719,0,0,0,179.622,68Z" transform="translate(-146.067 -7.43)" fill="#fff"/><path d="M200.8,47.272l5.4-.872V82.047l-5.4-.523Z" transform="translate(-149.291 -5.96)" fill="#fff"/><path d="M243.7,69.222a16.3,16.3,0,0,1-32.6.261,16.553,16.553,0,0,1,14.817-16.3A15.89,15.89,0,0,1,243.7,69.222m-23.968-5.839a8.56,8.56,0,0,0-2.266,6.1,8.85,8.85,0,1,0,8.28-9.151,9.155,9.155,0,0,0-6.014,3.05" transform="translate(-150.614 -6.818)" fill="#fff"/><path d="M228.23,102.162a29.98,29.98,0,0,1-17.518-12.376,3,3,0,0,1,.174-3.835,2.448,2.448,0,0,1,3.573.7,22.288,22.288,0,0,0,13.858,9.239c13.945,2.7,27.541-9.849,27.541-28.587s-13.6-31.115-27.541-28.151a22.816,22.816,0,0,0-11.592,6.711c-1.133,1.22-2.789,1.307-3.661.261a3.2,3.2,0,0,1,.349-4.009,29.848,29.848,0,0,1,14.9-9.239c18.3-4.706,37.129,10.2,37.129,34.34-.087,24.229-18.913,39.395-37.216,34.95" transform="translate(-150.486 -4.111)" fill="#fff"/><path d="M162.856,88.382C156.319,86.988,151.7,77.836,151.7,67.813s4.619-19.262,11.156-20.743c3.573-.784,7.147.7,10.023,4.532a2.39,2.39,0,0,1-.261,2.963,1.473,1.473,0,0,1-2.353.087c-2.179-2.963-4.794-4.271-7.5-3.748-5.142.959-8.977,8.541-8.977,16.908,0,8.454,3.835,15.95,8.977,16.821,2.7.436,5.4-.872,7.5-3.835a1.469,1.469,0,0,1,2.353,0,2.653,2.653,0,0,1,.261,2.963c-2.876,3.835-6.45,5.4-10.023,4.619" transform="translate(-142.984 -6.019)" fill="#fff"/></svg>