<?xml version="1.0" encoding="UTF-8"?><svg id="a" xmlns="http://www.w3.org/2000/svg" viewBox="0 0 1080 1080"><defs><style>.h{fill:#fff;}.i{fill:#f47e3c;}</style></defs><path class="i" d="M732,476.66c0,87.4-117,243-168.3,307.2-12.3,15.3-35.1,15.3-47.4,0-52.2-64.2-168.3-219.8-168.3-307.2,0-106.04,85.96-192,192-192s192,85.96,192,192h0Z"/><g><path id="b" class="h" d="M408.24,442.73l9.17-.99,8.43,36.2,8.68-37.93,10.91-1.24-16.11,59-7.19-.49-13.88-54.54Z"/><path id="c" class="h" d="M459.8,475.45c1.74,7.44,6.69,12.4,12.64,12.64,4.56,.26,8.94-1.79,11.66-5.45l14.87,.49c-3.47,12.4-15.12,21.33-26.03,20.33-14.13-1.24-24.54-16.61-24.54-34.46s10.41-34.21,24.79-35.7c15.12-1.74,28.02,14.38,28.02,34.21,0,2.73-.49,5.45-.74,8.18l-40.67-.25Zm27.52-14.13c-2.23-7.93-7.93-12.64-14.38-12.15-6.72,1.07-12.06,6.21-13.39,12.88l27.77-.73Z"/><path id="d" class="h" d="M510.63,407.28l15.36-2.48v101.4l-15.36-1.49v-97.43Z"/><path id="e" class="h" d="M628.89,467.27c.2,25.61-20.39,46.53-45.99,46.74-25.61,.21-46.53-20.39-46.74-45.99h0c.23-23.92,18.36-43.86,42.15-46.37,24.78-2.98,47.29,14.7,50.27,39.49,.24,2.04,.35,4.09,.32,6.14m-68.18-16.61c-4.35,4.71-6.66,10.94-6.45,17.35,.5,13.89,12.17,24.75,26.06,24.25,13.89-.5,24.75-12.17,24.25-26.06-.5-13.89-12.17-24.75-26.06-24.25-.23,0-.47,.02-.7,.03-6.6,.61-12.72,3.71-17.11,8.68"/><path id="f" class="h" d="M585.25,568.67c-20.38-5.19-38.13-17.73-49.83-35.2-2.49-3.28-2.28-7.87,.49-10.91,3.07-2.31,7.44-1.7,9.75,1.38,.15,.2,.29,.4,.41,.61,9.25,13.52,23.38,22.94,39.42,26.28,39.67,7.68,78.34-28.02,78.34-81.32s-38.69-88.51-78.34-80.08c-12.65,2.92-24.14,9.57-32.97,19.09-3.22,3.47-7.93,3.72-10.41,.74-2.4-3.56-1.99-8.31,.99-11.4,11.18-12.81,25.94-21.96,42.38-26.28,52.05-13.39,105.61,29.01,105.61,97.68-.25,68.92-53.8,112.06-105.86,99.41"/><path id="g" class="h" d="M420.63,524.05c-18.59-3.97-31.73-30-31.73-58.51s13.14-54.79,31.73-59c10.16-2.23,20.33,1.99,28.51,12.89,1.74,2.64,1.44,6.13-.74,8.43-1.32,1.9-3.93,2.37-5.83,1.05-.32-.22-.61-.49-.86-.8-6.2-8.43-13.64-12.15-21.33-10.66-14.63,2.73-25.53,24.29-25.53,48.09s10.91,45.37,25.53,47.85c7.68,1.24,15.36-2.48,21.33-10.91,1.38-1.85,4-2.23,5.85-.84,.32,.24,.6,.52,.84,.84,1.95,2.39,2.24,5.73,.74,8.43-8.18,10.91-18.35,15.36-28.51,13.14"/></g></svg>